<?xml version="1.0" encoding="UTF-8"?>
<svg version="1.1" viewBox="0 0 1440 1440" width="1280" height="1280" xmlns="http://www.w3.org/2000/svg">
<path transform="translate(727,208)" d="m0 0h2l2 11 3 17 8 21 11 27 3 16v20l-4 20-6 14-2 9-1 20v11l1 3 6-2 17-12 14-8 9-9 6-8 8-19 8-24 6-11 3-3h3l-1 8-3 14-2 18-4 18-6 16-7 13-8 10h-2v2l-8 7-10 9-7 7-9 14-7 9-11 7-3 3-2 22v8l-3 17-6 25-3 10 8-3 10-9 4-5 6-10 5-16 1-9 12-31 6-10 6-7 11-7 16-9 24-11 19-11 7-6 6-7 2 1-3 12-3 10-9 12-5 6-8 7-12 11-10 12-5 8-5 11-10 29-8 16-6 7-21 13-15 8-7 2-16 1-1 11v10l-2 19-10 32-9 18-1 14 16-8 2-3 2-18 3-11 12-17 7-7 18-10 5-2 1-9 8-11 6-7 3-6 9-6 13-12 12-12 7-11 10-21 4-9h2v10l-6 26-10 30-7 15-1 5 7-3 21-21 15-9 6-2-1 4-9 9-4 8-5 16-8 11-7 7-10 6-19 10-6 1h-5l-3 7-7 8-8 11-9 10-7 6-5 5-24 14-15 6-11 3-4 2-4 9-3 23-1 5v11l6-5 8-10 13-13 14-8 25-13 11-7 9-10 7-11 5-12 8-10 7-7 5-4h2l-2 7-7 14-3 27-2 17-5 18-6 9-9 7-11 7-20 10-11 8-4 3h-2l-2 4-9 10-9 11-8 5-15 6-2 14 1 9 2 4 5 1 7-13 5-5 9-6 29-10 36-16 8-7 8-11 6-14 7-20 3-9 2 1-2 10-2 30-1 9-3 12-6 14-1 10 1 3-1 7 1 3 3-1 4-8 6-16 3-7-1-11-3-9 1-4 6 10 2 7 5-3 20-10h2l-1 6-3 4-2 10-3 9-2 10-7 16-5 15-1 7 8-4 8-8 5-10 8-21 4-8 4-11v-8l-4-7-1-5v-9l5-11 4-10 3-7 1-10v-17l4-16 7-13 4-2-1 14 3 15 10 24 4 1 2-5 7-10 4-5 16-14 14-10 12-10 10-13 5-8 3-1 1 3-5 10-10 14-2 9-8 16-13 23-8 18-3 12-4 10-1 5 10-8 10-5 10-4 13-12 2-6 10-15 9-11 9-7 21-10 14-7 7-6 8-12 4-5 11-7 16-9 2 1-9 11-6 7-8 14-10 14-9 8-15 9-16 7-13 9-8 8-2 4 37-1 14-3 19-7 22-11h6l-2 4-25 16-13 8-10 5-13 4-31 3-16 4-6 3h-19l-7 4-13 11-8 8-12 9-7 3-6 5-1 2h10l15-4 16-8 11-8 22-12 9-2 9-1h15l26 1h29l-2 4-11 5-19 5-26 4-16 6-21 12-20 9-13 2h-19l-12-3-10-4-13 15-12 12-14 10-11 6-5 4h-2v5h11l5-5 11-10 14-6 14-2 16-1 12-6 15-5 21-3 17-4 12-5 13-7 4-4h2l-2 5-8 8-17 11-17 10-8 6 3 1 20-6 13-3h3v3l-16 8-10 6-14 5-10 2h-29l-11 5-22 6-5 2-7 1h-18l-17-3-2 2-4 10-3 7 12-1 36-1 13-5 22-12 11-3 4 1v2l-10 5-11 10-6 8-3 1-2 4h-2l-2 4-8 8-10 5-16 3h-15l-6 2h-11l-10 3-2-1-2 5-4 8v5l15 3 6-1 9-13 10-7h3l-1 7-6 10v2h7l13-5 10-8 15-14 5-2-2 5-9 10-14 19-10 9-10 5-9 3-4 5 1 8 3 1 8-5h2l2-4 5-6 13-9 11-5 7-2h6l6 3h3l9-13 1-5-3-16v-6h3l3 5v2l6 1 1 1v13l4 6 10 7 7 4v-10l-2-9-3-9v-15l6-16 4-11 2-7 2 1 1 4v18l-3 8v8l6 18v10l-7 19v10l5 12 4-2 6-10 11-32 6-9 5-12 2-5 3-1-2 14-1 4v9l1 9-2 14-3 12 8-2 22-12 8-6 4-4 1 4-6 9-5 6-8 7-8 6-5 8-4 9-1 5-9 7-6 2-10 30-1 2 3 16h3l2-12 5-15 8-16 4-5h2l-1 19 10-6 6-2h7l-3 3-10 6-6 5-6 12-3 12-6 14-2 3-3 1-1 2v10l3 8 2 1 5-11 7-24 3-10 6-7 16-9 6-7 4-7h2l-1 10-9 16-5 7-11 28-6 9-7 6-10 5-2 5 1 4v14l-4 17-1 2 6-4 10-9 11-6 13-10 11-16 3-3-1 6-7 24-4 9-5 6-7 5-11 5-7 2-11 12-7 6-1 7-2 6v15l3 11 6-1 1 4-2 2-6-1 1 17 5-5 2-6h2l2-9 1-16-1-4v-11h3l2 8v4l3-3 5-14 7-12 10-10 3-1 1 2-7 10-5 10-1 3-2 16-4 15-5 13v10l3 1 1-11 6-11 1 3-5 14 2 2 2-1 4-10 10-17 7-11 6-9 2 1-12 23-1 5 4 2 1 2h2l10-35 5-12 6-8 7-7 2 1-8 14-4 11-4 16 4-9 4-2 4-5 7-4h2v-10l5-10 10-13 8-7 5-8 6-5h5l5 5-1 8 8-4 4 1-2 5-7 9-7 8-1 2h2l2-4 9-8h2l2-5 3-9 10-10 9-17 7-5h2l-1 5-4 13v5l27-9 10-4h3l-1 4-9 8-13 10-10 8-1 3 3 1h7l8-4 5-4 9-3 21-3 15-6h6l-2 4-10 7-12 5-18 2 2 4 4 3 3 1 16 1v3l-5 2-6 1h-19l5 5 8 5v3l-10-1-6-1-36-1-12-6-3-2-7 1-3 3 6 3 10 2h9l26 4v2l-9 2-2 6-7 3h-7l-15-4h-4v4l-13 4-4 2h-12l-12-3-13-2-5-4h-3l1 4 20 10 9 1 4-1h9l-1 2-10 4-1 2 4 2 2 3-10 3-18 10-13 3-5 4-12 4-2 1v5l16-7 7-1-3 5-15 10-1 3 14-3 13-3h5l-1 3-10 4-25 6h-2l-3 9-8 13-7 10-8 6-4 2h-7l-8-2-11-1-2 10-4 2-1-1-1-9-15-3-8-7-6-8-10-5-8-9-4-7-1-9 1-6v-11l-3-5-9-11-2-7 9 6 7 4 9 11 2 1-5-12-6-8v-2l-4-2-10-8-8-8-7-10-5-13v-7h2l4 8 6 8 1 1v-6l11 2-2-4-11-11 6 2 9 7 7 3-4-9-16-8-5-4-2-4-7-3 1-2 7-1-3-2-11-1-9-2-9-4-4-1-1 15-3 10-6 12-8 11-13 13-10 6-11 4-3 1-1 2h-2l-1 3-3 2-3 8-9 12-7 7-9 4-16 3-21 3v24l-1 2h-5l-3-4-1-6h-3l-2-3v-7l4-2-1-4-4-3-3 4-1-1v-5h-13l-9 2-16 5h-17l-16-8-16-12-7-7-6-10-4-11-3-7-11-11-5-6-14-9v-3l13 4 12 6 11 8 9 8 7 8 9 7 7 3 12 2 8-1 6-1 5 2 2 5h4l-4-3v-2l7 1 6 3v-6l-5-5-9-4-22-2-18-8-14-8-12-9-16-10-14-6-39-8-26-10-19-9-23-13-4-3v-2l11 3 29 12 17 3 17 4 26 4 10 1 2 1-4-5-22-14-13-9-14-8-5-3v-3l9 1 10 3 22 12 17 4 27 1 15 5-6-12-8-14-2-8h-8l-6 5-7 2h-17l-14-4-17-7-3-5 1-3-21-1-14-5-27-16-16-8-10-4-16-2v-3l7-3h19l15 4 11 4 10 1h15l14-2 15-4 10-1h9l1 3 6 2 2 1-4-13-10-21-5-6-3 7-4 3-14 1-17 10-12 5-11 3h-23l-12-5-23-12-9-6v-3l17 5 11 4 5 1h13l10-2 16-7 11-7 9-5 4-3 12 1 1-2-5-8-5-3-6 1-8 4h-13l-2 1-12 2-13 4-10 5-14 4-15-1-18-6-21-9-19-4 3-3 6-1h46l21-8 15-7 23-2 3-1-13-8-13-6-6-1-16 12-20 8-26 4-21 3-13 5-6 4-14 3-14 1-10-2-15-1-4-2 15-5 19-2v-2l-13-3-32-4-14-4-2-4 10 1h28l17-3 18-6h12l4-1h14l16-6 16-2h11l17 7 6-1 5-4 1-3-18-4-6-1h-8l-21-7-16-7-6-2-2 5-9 8-16 8-11 4h-37l-19-1-18 2-25 6-14 2h-15l-5-1v-2l15-4 16-8 23-12 11-5 11-3 15-1 26 3 14 2 17-1 12-2 1-4-7-2-15-2-31-10-4-1h-7l-8 4-11 3-14 1-19 6-16 5-7 1h-25l-28-5-9-2v-4l44-1 16-3 11-4 10-4 13-4 2-1v-2l-12-5-13-4-4-4-14 3h-15l-13-3-16-8-11-7-10-6-20-10-1-2 27 3 11 3 18 10 12 3 38 1 10 3 15 8 9 7 8 7 12 4h21l10 1-3-6-9-10-7-8-7-7-14-11-5-4-16-11-5-5-5-6-17-12-3-4 5 1 14 8 14 5 21 4 16 5 9 4 9 6 4 5 4 1 2-1 1-3v-21l-2-14-5-12-3-5 2-1 11 7 8 8 6 10 8 19 7 8 8 7 12 11 3 11-1 8-1 5 2 4 4 2 9 7 5 5 5 4 7 8 11 9 2 2 10 1 12 5 4 1-3-5-7-6-9-7-15-14-11-14-12-15-5-7 4 1 17 9 10 6 2 1-4-14v-13l2-4h2l3 16 5 13 7 10 6 7 10 8 10 10 5 6 5 5 6 14 2 6 5 4 16 8 5 2 3-1-8-16-4-6-16-17-7-8-8-7-15-16-4-8-3-17-4-8-9-10-7-5v-3l6 2 11 8 9 10 10 13 9 10 7 8 11 11 11 14 10 15 5 11 5 25 5 6 10 6 10 9 6 5 12 17 5 8v-13l-6-16-2-5-3-15-7-20-8-16-7-10-7-9-3-4 4 2 12 11 10 10 9 11 7 10 8 15 8 26 1 5-2 1 4 16 8 24 3 16 9 14 2 2h3l2-12 2-6 12 6-1-4-15-27-10-19-12-23-3-7 1-3 6 10 12 22 9 14 10 13 10 15 9 14 8 18 9 19 9 6 3 1-11-33-11-24-3-6 1-2 6 7 11 19 7 19 8 28 6 11 4 3-1-10-7-24-2-14v-12l-2-8h-2l-5-8-5-14-2-7-2-16-2-7-1-23-4-19-8-18-9-14-9-9-8-7-1-4 5 1 14 10 9 9 11 14 11 16 9 19 4 11 5 17 3 3 3-6 2-12 5-18h3v12l-1 16-1 6 3 27 4 2 6 5 2 1 1-7 2 4-1 4 4 5v2l4 2 4 3 4-22 2-14 3-14v-10l-9-47-8-4-5-4-5-3-11-12-12-12-16-7-12-3-19-10-11-8-9-8-10-16-6-17-5-19-3-23-11-21-5-9-1-4 5 2 9 14 6 11 12 17 10 11 11 9 14 10 7 6 23 14 7 6v2l4 2 10 7 9 7 7 8 4 3-2-8-9-21-3-16v-14l-1-11-1-6 3-13 1-12-5-2-9-7-15-10-10-9-7-7-9-13-8-16-13-30-6-17-8-15-20-30-7-16-3-11-1-14v-18l3 1 1 2 1 12 2 7 4 11 7 10 9 9 11 7 13 6 10 3 10 7 6 9 8 17 4 15 6 30 5 19 3 10 8 13 8 9 5 1 5-33 2-5v-6l-5-7-8-7-7-9-6-12-10-31-4-20-8-16-6-9-11-10-10-7-19-9-1-2 11 1 12 3 17 7 14 9-2-19-2-27v-10h1l3 10 9 14 6 10 7 13 5 6 5 12 6 21 4 18 1 19 1 7 4 1 2-7 2-17 5-16v-11l-10-28-4-12-6-17-4-16-9-3-14-6-9-7-3-3-11-23-9-25-9-10-10-7-16-12-9-8-7-8-9-13-6-14-3-11v-6l3 1 8 13 8 8 18 12 16 9 33 15 10 3h4l-2-11-4-14-2-22v-22l1-7v-22l-3-21-6-20-3-8 5 1 7 8 7 20 9 16 9 12 8 18 7 15 6 23 7 21 10 19 7 12 8 18 2-5 2-13 7-15 5-15 1-16-7-11-5-16-4-15-1-5v-23l5-19 6-15 3-11v-16l-9-25-1-5v-17l4-22zm-28 288-2 2 1 9 2 29v51l2 7 4-4 3-11v-17l1-24 3-22-1-8-6-10-2-2zm194 240-5 5-9 14-11 13-8 8-6 8-3 6 1 2 8-5 5-5 11-12 5-7 11-9 6-7-3-10zm-123 53-20 9-19 8-11 4-9 7-4 5-6 4-5 3-3 2-1-3-2-1h-8l-1 3 4 12 8 16 4 6 5 7 3 10 3 2 3-4 4-13 7-11 7-10 6-15 3-14-2 11-2 7v6l5 1 19-12 5-8 5-13 3-12 1-6zm-458 33 1 2zm1 2v5h1v-5zm1 5 1 2zm1 2m-8 17-2 2-1 7 5 5 9 3 13 3 12 6 8 5 7 3 9 1-5-5-8-5-12-4-17-9-11-8zm60 35m387 5-5 2v2l-4 2-10 6-1 2 1 9 3 1 7-5 2 1 11-14 5-6zm-9 20-6 7-1 4 5-5 3-4zm148 6-2 4v9l14 7 6 8 4 10 4 15 8 10 3 2v-8l-3-14-1-15-6-4-8-10-11-9-6-5zm-28 5-9 5-1 3-4 2-7 8-9 14v3l5-1 5-5 10-9 9-7 8-6 1-3-2-4zm-93 9-5 3-9 4-8 5-4 4 1 25 1 2 4-1 5-8 7-1 3-2 13-3 5-5 7-8 4-6v-5l-4-2-8 1-10-2zm152 9 1 3zm-41 3-10 16-10 12-3 5-1 3-5 2-7 3v2l-5 2-11 6v2l-4 2-8 7-9 11-5 5v2h2l1 7 3 2h5l11-12v-6h1l4 2 4-1v2 5h5l11-11 9-11 1-2 3-1-3 8-12 16-5 8 12 13 4-1 4-10-1-11 6 8 3 23 2 9-1 12 6 17 3 5 4-1 1-5-5-14-4-10 4 1 9 3 1 3 2-2-1-1 1-5v-14l1 1 6 12 8 9 10 5 15 5 11 9 2-1v-8l-11-7-4-5h-2l-2-4-9-7-14-8-4-5-2-11-2-13-2-9 5 2 2 5 5 10 9 8 18 10 3 4h2v2l5 2-1-15-5-5-9-3-10-6-10-9-8-10-11-5-5-3h-2l-2-4-8-14-2-3 8 1 2 4 5 5h2v-6l-5-13-2-7v-7l8 16 7 8 9 7 7 12 13 9 4 5 2 13 4 4 5 2-3-14-5-15-2-15-12-3-12-8-6-9-4-8-4-12-4-4zm-164 13-4 5-1 2v9l6 23 2 9 2 4 4-2 3-7v-8l-3-16-1-6-2-10-2-3zm218 7-2 1v17l1 20 3 6 1-4 2-30 2-9-1-1zm-233 38-1 1v9l5-1v-7zm236 6 1 2zm-275 1-1 1v10l3 24 5 16 4 1 1-1-1-28v-12l-5-7zm-89 14 3 11 9 17 6 7 5 3 8 2-8-16-8-11-8-9zm104 1-1 4 2 33 5 3h5l3-17-1-9-4-8-8-6zm28 0-3 3-3 10 1 10 6 11 1 2h2l2-13v-12l-2-8zm46 7-10 7-16 6v19l3 5 4-2 10-6 9-7 4-5 1-4h-3l1-5 4-2-1-6zm-221 3-13 2-10 3-5 5 1 2 11 2 25-6 8-1-2-4-9-3zm274 3-8 2-2 4v3l6 4h3l4-9v-4zm29 4-5 4-1 9 12 8 5 1v-7l-1-7h-2l-2-8zm-41 10 1 5h3l-1-4zm51 0m-146 1-1 3v14l8 6h2l-1-8-6-14zm123 7 1 5 17 7 8 6 9 3h8l-4-4-12-7h-2l-2-4-7-4-7-2zm-140 8 1 10 3 7h1l2-9v-5l-4-3zm174 1v3l3 2h6l-2-4zm-65 4v4l-3 1-3 3-1-2-4 4-2 4-4 3v2h-2v2h-2l-7 12-7 9-1 7 1 2 4-1 8-9 7-9 10-10 9-4 4-11v-5l-2-2zm-2 1-2 4 3-2zm105 0-1 2 5 11h1v-9l-4-4zm-198 1-1 2-1 12 4 6-2 10-1 18v25l3 3 3-7 4-19 1-15 2-6v-18l-4-7-6-4zm127 2-1 5 2 2 7 2 9 3 16 5 19 1-3-5-4-5-5-1-26-1-11-6zm47 6v2h2v-2zm-46 5 1 4 3 2h7l-5-5zm86 1 1 10 6 9 4 1 5 1 5 6 4 7 4 1 7-15-1-4-8-2-2-4-10-5-10-4zm158 7-4 5-1 8 4-1 6-11zm-476 2 4 3h5l-3-2zm290 1 1 5 2 1-1-6zm-281 2m7 1 2 5 10 12 5 4 10 19 6 10 3 6 6 2 2-2-1-6-13-27-9-12-10-7-10-4zm277 3m1 1-1 2h-12l-9 1 5 4 8 4h16l1-3-3-5zm-280 4-4 5h-7l-8-4-9 1-2 1v2l17 9 8 7h2l2 4 12 10 8 7h4l-1-7-7-10-11-22zm512 10-7 1-1 2 11 1h17l-1-2-9-2zm-34 2 1 2 1-2zm-33 2m-2 1-8 9-3 5v2l4-2 8-9 1-5zm33 0m-196 3m4 0-2 2 7 8 5 3h2l1-5-2-5zm28 4 1 5 4 1v-4zm147 1-2 3h7v-2zm-461 3v2l3 1v-2zm3 3m63 0-3 4 1 11 2 2 2-5v-4l2 5v5l-2 4 4-2 3-4-1-9-7-7zm379 1v2l10 4 9 5 8 1 5-2-4-3-15-5-9-2zm-12 1-1 2h2zm-3 3m-149 3 1 5 5 2 1-2-4-4zm-16 1m31 0 1 6 8 5 9 6h2v-11l-2-3-8-3zm30 10-3 4-1 9 3 5 3 2 1-19zm88 8-6 4-1 6 10 2 7 1h14v-3l-19-9zm-31 19 1 2zm-1 2-3 7h2l3-6zm-71 2-1 4 4 6 4 4 5-1 1-8-10-5zm20 2 1 2zm1 2v11l3 2-1-9zm58 8v4h2l-1-4zm-96 6 1 6 9 8 6 4h2l-2-5-7-9-5-4zm40 1-3 3v9l4 8 2 1v-20zm38 13-8 16 7-1 9-7 4-5v-2l-2-1zm-5 0-5 4-6 13v2h2l8-14 2-5zm-30 8m50 0 1 2zm-1 2m-1 1-9 8-7 3-13 1v4l4 2h9l8-4 9-12zm-41 2-1 2 4 2-2-4z" fill="#87966C"/>
<path transform="translate(279,752)" d="m0 0 8 4 12 11 6 10 8 19 7 8 8 7 12 11 3 11-1 8-1 5 2 4 4 2 9 7 5 5 5 4 7 8 11 9 2 2 10 1 12 5 4 1-3-5-7-6-9-7-15-14-11-14-12-15-5-7 4 1 17 9 10 6 2 1-4-14v-13l2-4h2l3 16 5 13 7 10 6 7 10 8 10 10 5 6 5 5 6 14 2 6 5 4 16 8 5 2 3-1-8-16-4-6-16-17-7-8-8-7-15-16-4-8-3-17-4-8-9-10-7-5v-3l6 2 11 8 9 10 10 13 9 10 7 8 11 11 11 14 10 15 5 11 5 25 5 6 10 6 10 9 6 5 12 17 5 8v-13l-6-16-2-5-3-15-7-20-8-16-7-10-7-9-3-4 4 2 12 11 10 10 9 11 7 10 8 15 8 26 1 5-2 1 4 16 8 24 3 16 9 14 2 2h3l2-12 2-6 12 6-1-4-15-27-10-19-12-23-3-7 1-3 6 10 12 22 9 14 10 13 10 15 9 14 8 18 9 19 9 6 3 1-11-33-11-24-3-6 1-2 6 7 11 19 7 19 8 28 6 11 4 3-1-10-7-24-2-14v-12l-2-8h-2l-5-8-5-14-2-7-2-16-2-7-1-23-4-19-8-18-9-14-9-9-8-7-1-4 5 1 14 10 9 9 11 14 11 16 9 19 4 11 5 17 3 3 3-6 2-12 5-18h3v12l-1 16-1 6 3 27 4 2 6 5 2 1 1-7 2 4-1 4 4 5v2l4 2 4 3 4-22 2-14 3-14h1v11l2 3h2l2-7h2l1-11 3-9h1l2 13 5 19 2 9 1 4 4-2-1 17-2 15 3-1 2-4 4-2 6 2v2l4 2-4 3-11 3v19l2 4 4-2 10-6 9-7 5-8h-2l-1 2-1-2 2-5 3-2v-6l-4-1 3-2h7l15-13 4-1 5 7-2 7-3 3-4 6-3 3h-2l-2 4-12 8-12 6-4 5-4 17-2 7v4l3-1 1 3-9 14-4 10 1 5 10-6h2v-2l10-7 7-4 7-8 8-10 3-5 8-12h2l-1-4 1-6-8 6-5 3-2 2v-3l3-6 4-4 4-1 1-6 3-1 11 3v-2h-2v-2l-4-2-2-4 3-7 2-1h6l1-4-3-2 1-5 4-5 5-5h-6l-9 5-9-3-1-5 7-10 2-6 13-7 10-9 7-8 4-10 8-10 2 1-4 8 6-3h2l2-4 10-9 9-7 7-5 1-3-1-3-5-1v-1l5-1-3-2-10 1 3-2 10-1 6 3h3l9-13 1-5-3-16v-6h3l3 5v2l6 1 1 1v13l4 6 10 7 7 4v-10l-2-9-3-9v-15l6-16 4-11 2-7 2 1 1 4v18l-3 8v8l6 18v10l-7 19v10l5 12 4-2 6-10 11-32 6-9 5-12 2-5 3-1-2 14-1 4v9l1 9-2 14-3 12 8-2 22-12 8-6 4-4 1 4-6 9-5 6-8 7-8 6-5 8-4 9-1 5-9 7-6 2-10 30-1 2 3 16h3l2-12 5-15 8-16 4-5h2l-1 19 10-6 6-2h7l-3 3-10 6-6 5-6 12-3 12-6 14-2 3-3 1-1 2v10l3 8 2 1 5-11 7-24 3-10 6-7 16-9 6-7 4-7h2l-1 10-9 16-5 7-11 28-6 9-7 6-10 5-2 5 1 4v14l-4 17-1 2 6-4 10-9 11-6 13-10 11-16 3-3-1 6-7 24-4 9-5 6-7 5-11 5-7 2-11 12-7 6-1 7-2 6v15l3 11 6-1 1 4-2 2-6-1 1 17 5-5 2-6h2l2-9 1-16-1-4v-11h3l2 8v4l3-3 5-14 7-12 10-10 3-1 1 2-7 10-5 10-1 3-2 16-4 15-5 13v10l3 1 1-11 6-11 1 3-5 14 2 2 2-1 4-10 10-17 7-11 6-9 2 1-12 23-1 5 4 2 1 2h2l10-35 5-12 6-8 7-7 2 1-8 14-4 11-4 16 4-9 4-2 4-5 7-4h2v-10l5-10 10-13 8-7 5-8 6-5h5l5 5-1 8 8-4 4 1-2 5-7 9-7 8-1 2h2l2-4 9-8h2l2-5 3-9 10-10 9-17 7-5h2l-1 5-4 13v5l27-9 10-4h3l-1 4-9 8-13 10-10 8-1 3 3 1h7l8-4 5-4 9-3 21-3 15-6h6l-2 4-10 7-12 5-18 2 2 4 4 3 3 1 16 1v3l-5 2-6 1h-19l5 5 8 5v3l-10-1-6-1-36-1-12-6-3-2-7 1-3 3 6 3 10 2h9l26 4v2l-9 2-2 6-7 3h-7l-15-4h-4v4l-13 4-4 2h-12l-12-3-13-2-5-4h-3l1 4 20 10 9 1 4-1h9l-1 2-10 4-1 2 4 2 2 3-10 3-18 10-13 3-5 4-12 4-2 1v5l16-7 7-1-3 5-15 10-1 3 14-3 13-3h5l-1 3-10 4-25 6h-2l-3 9-8 13-7 10-8 6-4 2h-7l-8-2-11-1-2 10-4 2-1-1-1-9-15-3-8-7-6-8-10-5-8-9-4-7-1-9 1-6v-11l-3-5-9-11-2-7 9 6 7 4 9 11 2 1-5-12-6-8v-2l-4-2-10-8-8-8-7-10-5-13v-7h2l4 8 6 8 1 1v-6l11 2-2-4-11-11 6 2 9 7 7 3-4-9-16-8-5-4-2-4-7-3 1-2 7-1-3-2-11-1-9-2-9-4-4-1-1 15-3 10-6 12-8 11-13 13-10 6-11 4-3 1-1 2h-2l-1 3-3 2-3 8-9 12-7 7-9 4-16 3-21 3v24l-1 2h-5l-3-4-1-6h-3l-2-3v-7l4-2-1-4-4-3-3 4-1-1v-5h-13l-9 2-16 5h-17l-16-8-16-12-7-7-6-10-4-11-3-7-11-11-5-6-14-9v-3l13 4 12 6 11 8 9 8 7 8 9 7 7 3 12 2 8-1 6-1 5 2 2 5h4l-4-3v-2l7 1 6 3v-6l-5-5-9-4-22-2-18-8-14-8-12-9-16-10-14-6-39-8-26-10-19-9-23-13-4-3v-2l11 3 29 12 17 3 17 4 26 4 10 1 2 1-4-5-22-14-13-9-14-8-5-3v-3l9 1 10 3 22 12 17 4 27 1 15 5-6-12-8-14-2-8h-8l-6 5-7 2h-17l-14-4-17-7-3-5 1-3-21-1-14-5-27-16-16-8-10-4-16-2v-3l7-3h19l15 4 11 4 10 1h15l14-2 15-4 10-1h9l1 3 6 2 2 1-4-13-10-21-5-6-3 7-4 3-14 1-17 10-12 5-11 3h-23l-12-5-23-12-9-6v-3l17 5 11 4 5 1h13l10-2 16-7 11-7 9-5 4-3 12 1 1-2-5-8-5-3-6 1-8 4h-13l-2 1-12 2-13 4-10 5-14 4-15-1-18-6-21-9-19-4 3-3 6-1h46l21-8 15-7 23-2 3-1-13-8-13-6-6-1-16 12-20 8-26 4-21 3-13 5-6 4-14 3-14 1-10-2-15-1-4-2 15-5 19-2v-2l-13-3-32-4-14-4-2-4 10 1h28l17-3 18-6h12l4-1h14l16-6 16-2h11l17 7 6-1 5-4 1-3-18-4-6-1h-8l-21-7-16-7-6-2-2 5-9 8-16 8-11 4h-37l-19-1-18 2-25 6-14 2h-15l-5-1v-2l15-4 16-8 23-12 11-5 11-3 15-1 26 3 14 2 17-1 12-2 1-4-7-2-15-2-31-10-4-1h-7l-8 4-11 3-14 1-19 6-16 5-7 1h-25l-28-5-9-2v-4l44-1 16-3 11-4 10-4 13-4 2-1v-2l-12-5-13-4-4-4-14 3h-15l-13-3-16-8-11-7-10-6-20-10-1-2 27 3 11 3 18 10 12 3 38 1 10 3 15 8 9 7 8 7 12 4h21l10 1-3-6-9-10-7-8-7-7-14-11-5-4-16-11-5-5-5-6-17-12-3-4 5 1 14 8 14 5 21 4 16 5 9 4 9 6 4 5 4 1 2-1 1-3v-21l-2-14-5-12-3-5zm33 70 1 2zm1 2v5h1v-5zm1 5 1 2zm1 2m-8 17-2 2-1 7 5 5 9 3 13 3 12 6 8 5 7 3 9 1-5-5-8-5-12-4-17-9-11-8zm60 35m526 31-2 4v9l14 7 6 8 4 10 4 15 8 10 3 2v-8l-3-14-1-15-6-4-8-10-11-9-6-5zm31 23 1 3zm-41 3-10 16-10 12-3 5-1 3-5 2-7 3v2l-5 2-11 6v2l-4 2-8 7-9 11-5 5v2h2l1 7 3 2h5l11-12v-6h1l4 2 4-1v2 5h5l11-11 9-11 1-2 3-1-3 8-12 16-5 8 12 13 4-1 4-10-1-11 6 8 3 23 2 9-1 12 6 17 3 5 4-1 1-5-5-14-4-10 4 1 9 3 1 3 2-2-1-1 1-5v-14l1 1 6 12 8 9 10 5 15 5 11 9 2-1v-8l-11-7-4-5h-2l-2-4-9-7-14-8-4-5-2-11-2-13-2-9 5 2 2 5 5 10 9 8 18 10 3 4h2v2l5 2-1-15-5-5-9-3-10-6-10-9-8-10-11-5-5-3h-2l-2-4-8-14-2-3 8 1 2 4 5 5h2v-6l-5-13-2-7v-7l8 16 7 8 9 7 7 12 13 9 4 5 2 13 4 4 5 2-3-14-5-15-2-15-12-3-12-8-6-9-4-8-4-12-4-4zm54 20-2 1v17l1 20 3 6 1-4 2-30 2-9-1-1zm-233 38-1 1v9l5-1v-7zm236 6 1 2zm-275 1-1 1v10l3 24 5 16 4 1 1-1-1-28v-12l-5-7zm-89 14 3 11 9 17 6 7 5 3 8 2-8-16-8-11-8-9zm104 1-1 4 2 33 5 3h5l3-17-1-9-4-8-8-6zm28 0-3 3-3 10 1 10 6 11 1 2h2l2-13v-12l-2-8zm-175 10-13 2-10 3-5 5 1 2 11 2 25-6 8-1-2-4-9-3zm274 3-8 2-2 4v3l6 4h3l4-9v-4zm29 4-5 4-1 9 12 8 5 1v-7l-1-7h-2l-2-8zm-41 10 1 5h3l-1-4zm51 0m-146 1-1 3v14l8 6h2l-1-8-6-14zm123 7 1 5 17 7 8 6 9 3h8l-4-4-12-7h-2l-2-4-7-4-7-2zm-140 8 1 10 3 7h1l2-9v-5l-4-3zm174 1v3l3 2h6l-2-4zm-65 4v4l-3 1-3 3-1-2-4 4-2 4-4 3v2h-2v2h-2l-7 12-7 9-1 7 1 2 4-1 8-9 7-9 10-10 9-4 4-11v-5l-2-2zm-2 1-2 4 3-2zm105 0-1 2 5 11h1v-9l-4-4zm-198 1-1 2-1 12 4 6-2 10-1 18v25l3 3 3-7 4-19 1-15 2-6v-18l-4-7-6-4zm127 2-1 5 2 2 7 2 9 3 16 5 19 1-3-5-4-5-5-1-26-1-11-6zm47 6v2h2v-2zm-46 5 1 4 3 2h7l-5-5zm86 1 1 10 6 9 4 1 5 1 5 6 4 7 4 1 7-15-1-4-8-2-2-4-10-5-10-4zm158 7-4 5-1 8 4-1 6-11zm-476 2 4 3h5l-3-2zm290 1 1 5 2 1-1-6zm-281 2m7 1 2 5 10 12 5 4 10 19 6 10 3 6 6 2 2-2-1-6-13-27-9-12-10-7-10-4zm277 3m1 1-1 2h-12l-9 1 5 4 8 4h16l1-3-3-5zm-280 4-4 5h-7l-8-4-9 1-2 1v2l17 9 8 7h2l2 4 12 10 8 7h4l-1-7-7-10-11-22zm512 10-7 1-1 2 11 1h17l-1-2-9-2zm-34 2 1 2 1-2zm-33 2m-2 1-8 9-3 5v2l4-2 8-9 1-5zm33 0m-196 3m4 0-2 2 7 8 5 3h2l1-5-2-5zm28 4 1 5 4 1v-4zm147 1-2 3h7v-2zm-461 3v2l3 1v-2zm3 3m63 0-3 4 1 11 2 2 2-5v-4l2 5v5l-2 4 4-2 3-4-1-9-7-7zm379 1v2l10 4 9 5 8 1 5-2-4-3-15-5-9-2zm-12 1-1 2h2zm-3 3m-149 3 1 5 5 2 1-2-4-4zm-16 1m31 0 1 6 8 5 9 6h2v-11l-2-3-8-3zm30 10-3 4-1 9 3 5 3 2 1-19zm88 8-6 4-1 6 10 2 7 1h14v-3l-19-9zm-31 19 1 2zm-1 2-3 7h2l3-6zm-71 2-1 4 4 6 4 4 5-1 1-8-10-5zm20 2 1 2zm1 2v11l3 2-1-9zm58 8v4h2l-1-4zm-96 6 1 6 9 8 6 4h2l-2-5-7-9-5-4zm40 1-3 3v9l4 8 2 1v-20zm38 13-8 16 7-1 9-7 4-5v-2l-2-1zm-5 0-5 4-6 13v2h2l8-14 2-5zm-30 8m50 0 1 2zm-1 2m-1 1-9 8-7 3-13 1v4l4 2h9l8-4 9-12zm-41 2-1 2 4 2-2-4z" fill="#88976E"/>
<path transform="translate(727,208)" d="m0 0h2l2 11 3 17 8 21 11 27 3 16v20l-4 20-6 14-2 9-1 20v11l1 3 6-2 17-12 14-8 9-9 6-8 8-19 8-24 6-11 3-3h3l-1 8-3 14-2 18-4 18-6 16-7 13-8 10h-2v2l-8 7-10 9-7 7-9 14-7 9-11 7-3 3-2 22v8l-3 17-6 25-3 10 8-3 10-9 4-5 6-10 5-16 1-9 12-31 6-10 6-7 11-7 16-9 24-11 19-11 7-6 6-7 2 1-3 12-3 10-9 12-5 6-8 7-12 11-10 12-5 8-5 11-10 29-8 16-6 7-21 13-15 8-7 2-16 1-1 11v10l-2 19-10 32-9 18-1 14 16-8 2-3 2-18 3-11 12-17 7-7 18-10 5-2 1-9 8-11 6-7 3-6 9-6 13-12 12-12 7-11 10-21 4-9h2v10l-6 26-10 30-7 15-1 5 7-3 21-21 15-9 6-2-1 4-9 9-4 8-5 16-8 11-7 7-10 6-19 10-6 1h-5l-3 7-7 8-8 11-9 10-7 6-5 5-24 14-15 6-11 3-4 2-4 9-2 15h-2l-1-4h2l-2-6h-4l-2 10h-2l-1 7-4-5-12-11-7-10-5-13-9-27-4-20-8-16-6-9-11-10-10-7-19-9-1-2 11 1 12 3 17 7 14 9-2-19-2-27v-10h1l3 10 9 14 6 10 7 13 5 6 5 12 6 21 4 18 1 19 1 7 4 1 2-7 2-17 5-16v-11l-10-28-4-12-6-17-4-16-9-3-14-6-9-7-3-3-11-23-9-25-9-10-10-7-16-12-9-8-7-8-9-13-6-14-3-11v-6l3 1 8 13 8 8 18 12 16 9 33 15 10 3h4l-2-11-4-14-2-22v-22l1-7v-22l-3-21-6-20-3-8 5 1 7 8 7 20 9 16 9 12 8 18 7 15 6 23 7 21 10 19 7 12 8 18 2-5 2-13 7-15 5-15 1-16-7-11-5-16-4-15-1-5v-23l5-19 6-15 3-11v-16l-9-25-1-5v-17l4-22zm-28 288-2 2 1 9 2 29v51l2 7 4-4 3-11v-17l1-24 3-22-1-8-6-10-2-2z" fill="#87966D"/>
<path transform="translate(928,838)" d="m0 0 2 1 1 4v18l-3 8v8l6 18v10l-7 19v10l5 12 4-2 6-10 11-32 6-9 5-12 2-5 3-1-2 14-1 4v9l1 9-2 14-3 12 8-2 22-12 8-6 4-4 1 4-6 9-5 6-8 7-8 6-5 8-4 9-1 5-9 7-6 2-10 30-1 2 3 16h3l2-12 5-15 8-16 4-5h2l-1 19 10-6 6-2h7l-3 3-10 6-6 5-6 12-3 12-6 14-2 3-3 1-1 2v10l3 8 2 1 5-11 7-24 3-10 6-7 16-9 6-7 4-7h2l-1 10-9 16-5 7-11 28-6 9-7 6-10 5-2 5 1 4v14l-4 17-1 2 6-4 10-9 11-6 13-10 11-16 3-3-1 6-7 24-4 9-5 6-7 5-11 5-7 2-11 12-7 6-1 7-2 6v15l3 11 6-1 1 4-2 2-6-1 1 17 5-5 2-6h2l2-9 1-16-1-4v-11h3l2 8v4l3-3 5-14 7-12 10-10 3-1 1 2-7 10-5 10-1 3-2 16-4 15-5 13v10l3 1 1-11 6-11 1 3-5 14 2 2 2-1 4-10 10-17 7-11 6-9 2 1-12 23-1 5 4 2 1 2h2l10-35 5-12 6-8 7-7 2 1-8 14-4 11-4 16 4-9 4-2 4-5 7-4h2v-10l5-10 10-13 8-7 5-8 6-5h5l5 5-1 8 8-4 4 1-2 5-7 9-7 8-1 2h2l2-4 9-8h2l2-5 3-9 10-10 9-17 7-5h2l-1 5-4 13v5l27-9 10-4h3l-1 4-9 8-13 10-10 8-1 3 3 1h7l8-4 5-4 9-3 21-3 15-6h6l-2 4-10 7-12 5-18 2 2 4 4 3 3 1 16 1v3l-5 2-6 1h-19l5 5 8 5v3l-10-1-6-1-36-1-12-6-3-2-7 1-3 3 6 3 10 2h9l26 4v2l-9 2-2 6-7 3h-7l-15-4h-4v4l-13 4-4 2h-12l-12-3-13-2-5-4h-3l1 4 20 10 9 1 4-1h9l-1 2-10 4-1 2 4 2 2 3-10 3-18 10-13 3-5 4-12 4-2 1v5l16-7 7-1-3 5-15 10-1 3 14-3 13-3h5l-1 3-10 4-25 6h-2l-3 9-8 13-7 10-8 6-4 2h-7l-8-2-11-1-2 10-4 2-1-1-1-9-15-3-8-7-6-8-10-5-8-9-4-7-1-9 1-6v-11l-3-5-9-11-2-7 9 6 7 4 9 11 2 1-5-12-6-8v-2l-4-2-10-8-8-8-7-10-5-13v-7h2l4 8 6 8 1 1v-6l11 2-2-4-11-11 6 2 9 7 7 3 1-2v3h-6v2l5 2 3 4-1 2-4-2 1 5-6-2 6 10 6 7 5 5 6 7 7 5 12 4 2 1 1-10-3-8-8-7-1-2-3-1 1-2 8 5v-11h4v2l3-2 1-10 2-2 2-17-2-7-4-2-1 13h-2l2 5v9l-3 1-3-2-3-5-6-7-2-2 1-3h4l1-17-3-5v-3h-2l-1-4h-2l-1 6 2 4 4 9v3l-7-1-3-7-2-12-7-20-1-6 1-1 1-6v-15h2l7 14 7 8 10 5 15 5 11 9h1l1-8-5-2-9-7-1-3h-2l-5-6-17-10-7-6-2-5-3-21-1-9 5 2 8 15 8 7 18 10 5 5v2l4 1-1-14-4-4-9-3-10-6-10-9-8-10-11-5-7-4-7-11-6-11 9 2 7 8 2 1-2-8-6-18v-8l3 2 6 13 6 8 11 9 7 12 11 7 6 7 2 13 3 3 5 3-6-19-3-10-1-15-9-1-6-3-10-7-6-9-4-8-4-12-3-3-6-1-2 5-7 11-10 12-3 5-4 4-8 4h-2v2l-14 8h-2v2l-9 7-12 14-4 4-1 2h2l2 7 7 1 10-11v-6-3l6 4 4-1 2-1-2 9h4v2l-6 4-3 6-4 2v-3h-2v-5l-6 3-5 3h-2l-2 10-3 6h-7v-2h-2v-2l-4-2-2-4 3-7 2-1h6l1-4-3-2 1-5 4-5 5-5h-6l-9 5-9-3-1-5 7-10 2-6 13-7 10-9 7-8 4-10 8-10 2 1-4 8 6-3h2l2-4 10-9 9-7 7-5 1-3-1-3-5-1v-1l5-1-3-2-10 1 3-2 10-1 6 3h3l9-13 1-5-3-16v-6h3l3 5v2l6 1 1 1v13l4 6 10 7 7 4v-10l-2-9-3-9v-15l6-16 4-11zm-35 76-2 4v9l14 7 6 8 4 10 4 15 8 10 3 2v-8l-3-14-1-15-6-4-8-10-11-9-6-5zm31 23 1 3zm13 23-2 1v17l1 20 3 6 1-4 2-30 2-9-1-1zm3 44 1 2zm-133 29-8 2-2 4v3l6 4h3l4-9v-4zm88 36-1 2 5 11h1v-9l-4-4zm16 15 1 10 6 9 4 1 5 1 5 6 4 7 4 1 7-15-1-4-8-2-2-4-10-5-10-4zm158 7-4 5-1 8 4-1 6-11zm50 24-7 1-1 2 11 1h17l-1-2-9-2zm-34 2 1 2 1-2zm-33 2m-2 1-8 9-3 5v2l4-2 8-9 1-5zm33 0m-164 7 1 5 4 1v-4zm147 1-2 3h7v-2zm-16 7v2l10 4 9 5 8 1 5-2-4-3-15-5-9-2zm-12 1-1 2h2zm-3 3m-165 4m61 10-3 4-1 9 3 5 3 2 1-19zm88 8-6 4-1 6 10 2 7 1h14v-3l-19-9zm-31 19 1 2zm-1 2-3 7h2l3-6zm-71 2-1 4 4 6 4 4 5-1 1-8-10-5zm20 2 1 2zm1 2v11l3 2-1-9zm58 8v4h2l-1-4zm-96 6 1 6 9 8 6 4h2l-2-5-7-9-5-4zm40 1-3 3v9l4 8 2 1v-20zm38 13-8 16 7-1 9-7 4-5v-2l-2-1zm-5 0-5 4-6 13v2h2l8-14 2-5zm-30 8m50 0 1 2zm-1 2m-1 1-9 8-7 3-13 1v4l4 2h9l8-4 9-12zm-41 2-1 2 4 2-2-4zm-236-269h1l2 13 5 19 2 9 1 4 4-2-1 17-2 15 3-1 2-4 4-2 6 2v2l4 2-4 3-11 3v19l2 4 4-2 10-6 9-7 5-8h-2l-1 2-1-2 2-5 3-2v-6l-4-1 3-2h7l15-13 4-1 5 7-2 7-3 3-4 6-3 3h-2l-2 4-12 8-12 6-4 5-4 17-2 7v4l3-1 1 3-9 14-4 10 1 5 10-6h2v-2l10-7 7-4 7-8 8-10 3-5 8-12h2l-1-4 1-6-8 6-5 3-2 2v-3l3-6 4-4 4-1 1-6 3-1 11 3 2 5-1 5-3 5h-2l4 6v7h-1l-2-6-5-1v2l2 1-2 2h-3l-1 3h-4l-5 7-4 4h-2v2h-2l-2 6-11 15-1 9 5-2-2 5-8 17-2 5h-2l-2 5-4 6-7 5-13 2-10 5h-3l2-5 5-5 14-7 5-6 5-5 7-5 2-5 2-1 2-4v-7l-12 9-18 14-7 9-9 14-3-3 8-15 3-7 3-22 2-17 1-3h2v-2l6-2 1-12v-12l-3-6-1-10-1-2-3 9-3 13h-9l-2 2v5l-3-3v-2l-8-4-1 14 4 6-2 10-1 18v25l2 2 4-16 2-9 1-15 2-6 1-17h1v22l-4 25v11l-4 16-2 4-4-2-3-12-1-7-1-19-3-17-3-16-3-14-1-9 1-2h5l1 2-5-1 4 16 2-8v-6l6 2 2 1-1-6-13-1-6-4-2-22v-19l-4-6-6-4-1-2 1-2 4 2 6 5 2 1 1-7 2 4-1 4 4 5v2l4 2 4 3 4-22 2-14 3-14h1v11l2 3h2l2-7h2l1-11zm-9 38-1 1v9l5-1v-7zm-24 22-1 4 2 33 5 3h5l3-17-1-9-4-8-8-6zm28 0-3 3-3 10 1 10 6 11 1 2h2l2-13v-12l-2-8zm87 27 1 5h3l-1-4zm-95 1-1 3v14l8 6h2l-1-8-6-14zm90 21-2 4 3-2z" fill="#8A9970"/>
<path transform="translate(279,752)" d="m0 0 8 4 12 11 6 10 8 19 7 8 8 7 12 11 3 11-1 8-1 5 2 4 4 2 9 7 5 5 5 4 7 8 11 9 2 2 10 1 12 5 4 1-3-5-7-6-9-7-15-14-11-14-12-15-5-7 4 1 17 9 10 6 2 1-4-14v-13l2-4h2l3 16 5 13 7 10 6 7 10 8 10 10 5 6 5 5 6 14 2 6 5 4 16 8 5 2 3-1-8-16-4-6-16-17-7-8-8-7-15-16-4-8-3-17-4-8-9-10-7-5v-3l6 2 11 8 9 10 10 13 9 10 7 8 11 11 11 14 10 15 5 11 5 25 5 6 10 6 10 9 6 5 12 17 5 8v-13l-6-16-2-5-3-15-7-20-8-16-7-10-7-9-3-4 4 2 12 11 10 10 9 11 7 10 8 15 8 26 1 5-2 1 4 16 8 24 3 16 9 14 2 2h3l2-12 3-2 3 9 13 26 3 5v11l3 6 2 5 3 3v2h2v2l3 1v3l-5-1-9-6-9-8-9-16-2-8h-8l-6 5-7 2h-17l-14-4-17-7-3-5 1-3-21-1-14-5-27-16-16-8-10-4-16-2v-3l7-3h19l15 4 11 4 10 1h15l14-2 15-4 10-1h9l1 3 6 2 2 1-4-13-10-21-5-6-3 7-4 3-14 1-17 10-12 5-11 3h-23l-12-5-23-12-9-6v-3l17 5 11 4 5 1h13l10-2 16-7 11-7 9-5 4-3 12 1 1-2-5-8-5-3-6 1-8 4h-13l-2 1-12 2-13 4-10 5-14 4-15-1-18-6-21-9-19-4 3-3 6-1h46l21-8 15-7 23-2 3-1-13-8-13-6-6-1-16 12-20 8-26 4-21 3-13 5-6 4-14 3-14 1-10-2-15-1-4-2 15-5 19-2v-2l-13-3-32-4-14-4-2-4 10 1h28l17-3 18-6h12l4-1h14l16-6 16-2h11l17 7 6-1 5-4 1-3-18-4-6-1h-8l-21-7-16-7-6-2-2 5-9 8-16 8-11 4h-37l-19-1-18 2-25 6-14 2h-15l-5-1v-2l15-4 16-8 23-12 11-5 11-3 15-1 26 3 14 2 17-1 12-2 1-4-7-2-15-2-31-10-4-1h-7l-8 4-11 3-14 1-19 6-16 5-7 1h-25l-28-5-9-2v-4l44-1 16-3 11-4 10-4 13-4 2-1v-2l-12-5-13-4-4-4-14 3h-15l-13-3-16-8-11-7-10-6-20-10-1-2 27 3 11 3 18 10 12 3 38 1 10 3 15 8 9 7 8 7 12 4h21l10 1-3-6-9-10-7-8-7-7-14-11-5-4-16-11-5-5-5-6-17-12-3-4 5 1 14 8 14 5 21 4 16 5 9 4 9 6 4 5 4 1 2-1 1-3v-21l-2-14-5-12-3-5zm33 70 1 2zm1 2v5h1v-5zm1 5 1 2zm1 2m-8 17-2 2-1 7 5 5 9 3 13 3 12 6 8 5 7 3 9 1-5-5-8-5-12-4-17-9-11-8zm60 35m166 147-13 2-10 3-5 5 1 2 11 2 25-6 8-1-2-4-9-3z" fill="#88976E"/>
<path transform="translate(1070,611)" d="m0 0 2 1-9 11-6 7-8 14-10 14-9 8-15 9-16 7-13 9-8 8-2 4 37-1 14-3 19-7 22-11h6l-2 4-25 16-13 8-10 5-13 4-31 3-16 4-6 3h-19l-7 4-13 11-8 8-12 9-7 3-6 5-1 2h10l15-4 16-8 11-8 22-12 9-2 9-1h15l26 1h29l-2 4-11 5-19 5-26 4-16 6-21 12-20 9-13 2h-19l-12-3-10-4-13 15-12 12-14 10-11 6-5 4h-2v5h11l5-5 11-10 14-6 14-2 16-1 12-6 15-5 21-3 17-4 12-5 13-7 4-4h2l-2 5-8 8-17 11-17 10-8 6 3 1 20-6 13-3h3v3l-16 8-10 6-14 5-10 2h-29l-11 5-22 6-5 2-7 1h-18l-17-3-2 2-4 10-2 4h-2l-2 7-5 7-6 3-2 3-6 3-6 4-14 3-2-5-4-22v-19l2-10 2-5 3-3 4-2 3-1 1-3h2l1-3 4-4h2l2-4 3-3h2l2 4-1 3-4 4-5 13-2 3-3 10-2 4-4 22 1 7 5-5 5-9 1-3h2l1-4 3-1 2-6h-2v-11l1-10 7-18 6-19h2v-9l5-12 2-5-1-11-3-9 1-4 6 10 2 7 5-3 20-10h2l-1 6-3 4-2 10-3 9-2 10-7 16-5 15-1 7 8-4 8-8 5-10 8-21 4-8 4-11v-8l-4-7-1-5v-9l5-11 4-10 3-7 1-10v-17l4-16 7-13 4-2-1 14 3 15 10 24 4 1 2-5 7-10 4-5 16-14 14-10 12-10 10-13 5-8 3-1 1 3-5 10-10 14-2 9-8 16-13 23-8 18-3 12-4 10-1 5 10-8 10-5 10-4 13-12 2-6 10-15 9-11 9-7 21-10 14-7 7-6 8-12 4-5 11-7zm-177 125-5 5-9 14-11 13-8 8-6 8-3 6 1 2 8-5 5-5 11-12 5-7 11-9 6-7-3-10z" fill="#88976D"/>
<path transform="translate(862,994)" d="m0 0h3l-1 7-10 13-8 11 6 8 5 5h3l4-10-1-12 5 5 3 4 3 23 2 9-1 12 6 17 2 5 4-1-1-8-6-15-2-6 4-1 10 5 2 8 7 20 2 12 2 6 7 2-6-13-1-5 1-6 1 2h2l1 4h2l4 8v7l-2 10h-4l1 4 4 5 5 5 1 3 4 1v-9l-1-5 1-2 1-12 4 1 3 4 1 9-2 13-2 2-1 11-4 1-5-2-1-2-8-3-10-1 3 7 8 4 1 3 4 2 4 5 5 5 2 6-1 11-17-6-10-9-4-6-4-3v-2l-3-1-5-7-2-6 10 2-2-7-6-4v-2h6v-3h-2l-3-7-16-8-5-4-2-4-7-3 1-2 7-1-3-2-11-1-9-2-9-4-4-1-1 15-3 10-6 12-8 11-13 13-10 6-11 4-3 1-1 2h-2l-1 3-3 2-3 8-9 12-7 7-9 4-16 3-21 3v24l-1 2h-5l-3-4-1-12 1-4-2-12-2-6-3-11v-11l1-18 2-5 2-1v-5h-3l-3-17-3-34-3-20v-18l5 2 1 1 11 1 2 1 1 6-9-3-1-2-5-1 2 18 3 12 4 21 1 9 1 17 3 17 4 4 3-11 2-12v-8l4-25v-22l-1-1-1-8 4-2 8 1 1-11 4-13 3 4 2 13 2 3v18l-2 7-4 1h-2v2h-2l-4 36-3 12-6 10-3 7 2 1 10-16 9-10 13-9 8-7 4-3h2l1 7-3 5-2 1-2 5-9 7h-2l-2 5-3 1-1 3-10 5-7 4-4 7 12-5 4-1 10-2 5-4h2l2-4 4-7 2-1 3-9 8-15 3-5 10-13 12-12 8-3 4-11h2l-2-9-2-4 3-2 2-4-1-9h7l3-9 2-7 6-3 5-3h2v5h2v3l5-5 3-5 5-2 2-4 9-9 9-11zm-26 43-5 4-1 9 12 8 5 1v-7l-1-7h-2l-2-8zm10 10m-23 8 1 5 17 7 8 6 9 3h8l-4-4-12-7h-2l-2-4-7-4-7-2zm34 9v3l3 2h6l-2-4zm-33 8-1 5 2 2 7 2 9 3 16 5 19 1-3-5-4-5-5-1-26-1-11-6zm47 6v2h2v-2zm-46 5 1 4 3 2h7l-5-5zm58 11 1 5 2 1-1-6zm3 6m1 1-1 2h-12l-9 1 5 4 8 4h16l1-3-3-5zm0 22m4 0-2 2 7 8 5 3h2l1-5-2-5z" fill="#88976E"/>
<path transform="translate(279,752)" d="m0 0 8 4 12 11 6 10 8 19 7 8 8 7 12 11 3 11-1 8-1 5 2 4 4 2 9 7v2l-4-1-3-2v-2l-3 1-2 3 1 7 30 15v3h-10l-6-2v-1h7l-8-6-20-8-18-10-10-8-3-1-2 6 2 5 11 4 13 3 12 6 8 5 5 2v1l-7-1-2-1-1 2-7-4-4-1-3-2v2l4 2-3 1-2 5-9 8-16 8-11 4h-37l-19-1-18 2-25 6-14 2h-15l-5-1v-2l15-4 16-8 23-12 11-5 11-3 15-1 26 3 14 2 17-1 12-2 1-4-7-2-15-2-31-10-4-1h-7l-8 4-11 3-14 1-19 6-16 5-7 1h-25l-28-5-9-2v-4l44-1 16-3 11-4 10-4 13-4 2-1v-2l-12-5-13-4-4-4-14 3h-15l-13-3-16-8-11-7-10-6-20-10-1-2 27 3 11 3 18 10 12 3 38 1 10 3 15 8 9 7 8 7 12 4h21l10 1-3-6-9-10-7-8-7-7-14-11-5-4-16-11-5-5-5-6-17-12-3-4 5 1 14 8 14 5 21 4 16 5 9 4 9 6 4 5 4 1 2-1 1-3v-21l-2-14-5-12-3-5zm33 70 1 2zm1 2v5h1v-5zm1 5 1 2z" fill="#A9B396"/>
<path transform="translate(730,846)" d="m0 0 2 1-1 18 1 13 2 15 1 15 1 10v11l3 7 3-6 5-19 1-4h2l2-4 7-7 9-1 1 5 3 1 1-4-2-1v-2l-2-1h2v-2l7-6 4-6 9-3 1 1v9l-5 12-2 4v5l15 3 6-1 9-13 10-7h3l-1 7-6 10v2h7l13-5 10-8 15-14 5-2-2 5-9 10-14 19-10 9-10 5-9 3-4 5 1 8 3 1 8-5h2l2-4 5-6 13-9 8-4 13-2 4 2-1 2-9 3-6 4-14 16-5 5-8 10-4 11-14 14-8 5-6 3h-2l-1 6-7 10v4l9 3 9-5h6v3l-5 4-4 6-1 3 4 2-2 5h-7l-3 7 2 4 3 2v2h2v2l-7-1-6-1-2 6-6 2-2 4-3 7 11-8 4-3 1 5-1 6-3 3-6 9-3 5-10 12-7 8-6 3-8 6h-2v2l-12 7-2-2 1-5 4-11 8-12-1-2-3 1 1-8 5-19 1-4 6-5 13-7 10-7 5-5 6-9h2l1-7-4-6-5 2-10 9-4 3h-7l-13 9-4-1-4-3-5-1-3 1-2 6-3-1 1-15 2-20 2-4 12-12h2v-2h2v-2h2v-2l8-7 3-1 1-2 11-8 9-5 5-5 6-7 4-6v-5l-3-1-8 1-10-2-2-1-5 3-9 4-8 5-6 5-16 8-4-1-1-1-2-12-4-15-2-10v-24l1-12 2-12 2-7 4-7h2l2-5z" fill="#5A6D35"/>
<path transform="translate(627,293)" d="m0 0 5 1 7 8 7 20 9 16 9 12 8 18 7 15 6 23 7 21 4 8-1 4h-4l-1-4h-2v-3l-6-2-8 1v3l-8 1-3 1 1 3v9l5 2 3 3-2 6 1 15-9 3-1 3-6 1-4-1-12 2-4 9h-2l1 4-5 3-5-5-9-25-9-10-10-7-16-12-9-8-7-8-9-13-6-14-3-11v-6l3 1 8 13 8 8 18 12 16 9 33 15 10 3h4l-2-11-4-14-2-22v-22l1-7v-22l-3-21-6-20z" fill="#87966C"/>
<path transform="translate(1117,1065)" d="m0 0h2l-1 5-4 13v5l27-9 10-4h3l-1 4-9 8-13 10-10 8-1 3 3 1h7l8-4 5-4 9-3 21-3 15-6h6l-2 4-10 7-12 5-18 2 2 4 4 3 3 1 16 1v3l-5 2-6 1h-19l5 5 8 5v3l-10-1-6-1-36-1-12-6-3-2-7 1-3 3 6 3 10 2h9l26 4v2l-9 2-2 6-7 3h-7l-15-4h-4v4l-13 4-4 2h-12l-12-3-13-2-5-4h-3l1 4 20 10 9 1 4-1h9l-1 2-10 4-1 2 4 2 2 3-10 3-18 10-13 3-5 4-7 2h-12l-6-1-5 5-4 5h-3l1-5 4-7-2 2-5-1-2-3 1-5 10-17 7-11 6-9 2 1-12 23-1 5 4 2 1 2h2l10-35 5-12 6-8 7-7 2 1-8 14-4 11-4 16 4-9 4-2 4-5 7-4h2v-10l5-10 10-13 8-7 5-8 6-5h5l5 5-1 8 8-4 4 1-2 5-7 9-7 8-1 2h2l2-4 9-8h2l2-5 3-9 10-10 9-17zm-48 26-4 5-1 8 4-1 6-11zm50 24-7 1-1 2 11 1h17l-1-2-9-2zm-34 2 1 2 1-2zm-33 2m-2 1-8 9-3 5v2l4-2 8-9 1-5zm33 0m-17 8-2 3h7v-2zm-16 7v2l10 4 9 5 8 1 5-2-4-3-15-5-9-2zm-12 1-1 2h2zm-3 3m-16 22-6 4-1 6 10 2 7 1h14v-3l-19-9zm-31 19 1 2zm-1 2-3 7h2l3-6z" fill="#88966D"/>
<path transform="translate(724,1048)" d="m0 0 3 4 2 13 2 3v18l-2 7-4 1h-2v2h-2l-4 36-3 12-6 10-3 7 2 1 10-16 9-10 13-9 8-7 4-3h2l1 7-3 5-2 1-2 5-9 7h-2l-2 5-3 1-1 3-10 5-7 4-4 7 12-5 4-1 10-2 5-4h2l2-4 4-7 2-1 3-9 8-15 3-5 10-13 7-7 5-3 5-2-1 3-5 2-2 5-3 7-4 16 1 5 1 11h-2v16l3-1h2l-2-4 1-6 1-5 7 1 4 5 3 1 2 5h-2l-1 5-8 5-11 4-3 1-1 2h-2l-1 3-3 2-3 8-9 12-7 7-9 4-16 3-21 3v24l-1 2h-5l-3-4-1-12 1-4-2-12-2-6-3-11v-11l1-18 2-5 2-1v-5h-3l-3-17-3-34-3-20v-18l5 2 1 1 11 1 2 1 1 6-9-3-1-2-5-1 2 18 3 12 4 21 1 9 1 17 3 17 4 4 3-11 2-12v-8l4-25v-22l-1-1-1-8 4-2 8 1 1-11z" fill="#4C612D"/>
<path transform="translate(727,208)" d="m0 0h2l2 11 3 17 8 21 11 27 3 16v20l-4 20-6 14-2 9-1 20v11l1 3 6-2 17-12 14-8 9-9 6-8 8-19 8-24 6-11 3-3h3l-1 8-3 14-2 18-4 18-6 16-7 13-8 10h-2v2l-8 7-10 9-7 7-9 14-7 9-5 1-2-3-2-7-5-9-2-3v-13l-7-11-5-16-4-15-1-5v-23l5-19 6-15 3-11v-16l-9-25-1-5v-17l4-22z" fill="#88966D"/>
<path transform="translate(1070,611)" d="m0 0 2 1-9 11-6 7-8 14-10 14-9 8-15 9-16 7-13 9-8 8-2 4 37-1 14-3 19-7 22-11h6l-2 4-25 16-13 8-10 5-13 4-31 3-16 4-6 3h-19l-7 4-13 11-8 8-12 9-7 3-6 5-1 2h10l15-4 16-8 11-8 22-12 9-2 9-1h15l26 1h29l-2 4-11 5-19 5-26 4-16 6-21 12-20 9-13 2h-19l-12-3-10-4-11 13-1-4h-3l2-4 10-11 6-8 11-9 5-6 6 1 7-2 4-4-4-2 3-9 4-5-1 9 10-8 10-5 10-4 13-12 2-6 10-15 9-11 9-7 21-10 14-7 7-6 8-12 4-5 11-7z" fill="#88976D"/>
<path transform="translate(713,960)" d="m0 0h1l2 13 5 19 2 9 1 4 4-2-1 17-2 15 3-1 2-4 4-2 6 2v2l4 2-4 3-11 3v19l2 4 4-2 10-6 9-7 5-8h-2l-1 2-1-2 2-5 3-2v-6l-4-1 3-2h7l15-13 4-1 5 7-2 7-3 3-4 6-3 3h-2l-2 4-12 8-12 6-4 5-4 17-2 7v4l3-1 1 3-9 14-4 10 1 5 10-6h2v-2l10-7 7-4 7-8 8-10 3-5 8-12h2l-1-4 1-6-8 6-5 3-2 2v-3l3-6 4-4 4-1 1-6 3-1 11 3 2 5-1 5-3 5h-2l4 6v7h-1l-2-6-5-1v2l2 1-2 2h-3l-1 3h-4l-5 7-4 4h-2v2h-2l-2 6-11 15-1 9 5-2-2 5-8 17-2 5h-2l-2 5-4 6-7 5-13 2-10 5h-3l2-5 5-5 14-7 5-6 5-5 7-5 2-5 2-1 2-4v-7l-12 9-18 14-7 9-9 14-3-3 8-15 3-7 3-22 2-17 1-3h2v-2l6-2 1-12v-12l-3-6-1-10-1-2-3 9-3 13h-9l-2 2v5l-3-3v-2l-8-4-1 14 4 6-2 10-1 18v25l2 2 4-16 2-9 1-15 2-6 1-17h1v22l-4 25v11l-4 16-2 4-4-2-3-12-1-7-1-19-3-17-3-16-3-14-1-9 1-2h5l1 2-5-1 4 16 2-8v-6l6 2 2 1-1-6-13-1-6-4-2-22v-19l-4-6-6-4-1-2 1-2 4 2 6 5 2 1 1-7 2 4-1 4 4 5v2l4 2 4 3 4-22 2-14 3-14h1v11l2 3h2l2-7h2l1-11zm-9 38-1 1v9l5-1v-7zm-24 22-1 4 2 33 5 3h5l3-17-1-9-4-8-8-6zm28 0-3 3-3 10 1 10 6 11 1 2h2l2-13v-12l-2-8zm87 27 1 5h3l-1-4zm-95 1-1 3v14l8 6h2l-1-8-6-14zm90 21-2 4 3-2zm-84 5m119-66 7 4 4-1 2-1-2 9h4v2l-6 4-3 6-4 2v-3h-2v-5l-6 3-5 3h-2l-2 10-3 6h-7v-2h-2v-2l-4-2-2-4 3-7 2-1h6l2-3 1-6 2 4 1 3 7 1 10-11v-6zm-18 25-8 2-2 4v3l6 4h3l4-9v-4z" fill="#89986F"/>
<path transform="translate(793,771)" d="m0 0h1l2 8-1 7 1 3 3-1 6-12v7h-2l-2 10-9 25-1 2-2 21h2l-1 6-4 2-1 3h-2l-1 6-9 12-2-1-1-8 4-21 4-9 2-7 5-11 4-7h2l-1-7-6 5-1 2h-2l-2 4-5 4-4 4-3 2-4 2-1 5-2 12v17l4 22 1 5 8-3 7-2 8-5 3-1 2-3 6-3 5-7 2-6 2 1-1 2 12-1 36-1 13-5 22-12 11-3 4 1v2l-10 5-11 10-6 8-3 1-2 4h-2l-2 4-8 8-10 5-16 3h-15l-6 2h-11l-10 3-2-1-1 2 1-5v-9l-10 4-4 6-4 4h-2v5l3 1-2 4-4-1-1-3 1-2-9 2-8 8-3 6-6 22-4 4-3-9v-17l4-1 6-4h2l8-9 4-6 3-2h-8l-5 1v2l-12 8h-2l-1 2-2-20-1-4-1-19 1-12-7 7v-3l4-6 6-15 4-16h1l-1 9-3 11v6l6-1 14-9 5-5 4-10 3-7 1-6h1l1 5 6-5 3-10 2-2 3-4 2-1 1-4zm-48 137-6 7-1 4 5-5 3-4z" fill="#88976E"/>
<path transform="translate(928,838)" d="m0 0 2 1 1 4v18l-3 8v8l6 18v10l-7 19-1 1-1 9h-2v4l-3 1-8-9v-2l-4-2-11-10-4-1-2 12 9 3 8 6 1 6-5 5-1 7 2 1-5 3-3-5-2-1-4-9-2-2-6-1-2 5-7 11-10 12-3 5-4 4-8 4h-2v2l-14 8h-2v2l-9 7-12 14-4 4v8l-5-3 1-5 4-5 5-5h-6l-9 5-9-3-1-5 7-10 2-6 13-7 10-9 7-8 4-10 8-10 2 1-4 8 6-3h2l2-4 10-9 9-7 7-5 1-3-1-3-5-1v-1l5-1-3-2-10 1 3-2 10-1 6 3h3l9-13 1-5-3-16v-6h3l3 5v2l6 1 1 1v13l4 6 10 7 7 4v-10l-2-9-3-9v-15l6-16 4-11z" fill="#87966D"/>
<path transform="translate(987,1120)" d="m0 0 2 2-7 10-5 10-1 3-2 16-4 15-5 13v10l3 1 1-11 6-11 1 3-5 14 2 2 2-1 2-5 3 1 1 2 5-1 2-1-2 5-4 8h3l2-4 4-5 3-2 15 2-4 3v5l16-7 7-1-3 5-15 10-1 3 14-3 13-3h5l-1 3-10 4-25 6h-2l-3 9-8 13-7 10-8 6-4 2h-7l-8-2-11-1 4-2 3-2 1-12-3 3-2 3h-3l-2-5v-3l-8 1-5-1v-3l-4 1-1 2-4-1-5-7v-6h-2v-2h-2l-1-3-4-4h3l5 3-7-11-2-3 4 2v2l4 2 5 5v-3-12l-3-6-1-3 4 2 2 2 7-1 1 13 2 7 1-3v-7l2 3 2 8 3 6v-19h-4l-1 2-4-18v-7l2-3h2v-2h2l3 11v3h2l1 9 5-5 2-6h2l2-9 1-16-1-4v-11h3l2 8v4l3-3 5-14 7-12 10-10zm-51 66 1 2zm1 2v11l3 2-1-9zm58 8v4h2l-1-4zm-18 20-8 16 7-1 9-7 4-5v-2l-2-1zm-5 0-5 4-6 13v2h2l8-14 2-5zm-30 8m50 0 1 2zm-1 2m-1 1-9 8-7 3-13 1v4l4 2h9l8-4 9-12zm-41 2-1 2 4 2-2-4z" fill="#8A986F"/>
<path transform="translate(808,733)" d="m0 0 4 4 5 11v2l5-3 20-10h2l-1 6-3 4-2 10-3 9-2 10-7 16-6 17-1 10 1 2-3 13-3 5-4 10-2 4h-2l-2 7-5 7-6 3-2 3-6 3-6 4-14 3-2-5-4-22v-19l2-10 2-5 3-3 4-2 3-1 1-3h2l1-3 4-4h2l2-4 3-3h2l2 4-1 3-4 4-5 13-2 3-3 10-2 4-4 22 1 7 5-5 5-9 1-3h2l1-4 3-1 2-6h-2v-11l1-10 7-18 6-19h2v-9l5-12 2-5-1-11-3-9z" fill="#4D622E"/>
<path transform="translate(986,770)" d="m0 0h2l-2 5-8 8-17 11-17 10-8 6 3 1 20-6 13-3h3v3l-16 8-10 6-14 5-10 2h-29l-11 5-22 6-5 2-7 1h-18l-18-3 3-11 2-2 1 4h11l5-5 11-10 14-6 14-2 16-1 12-6 15-5 21-3 17-4 12-5 13-7z" fill="#89976E"/>
<path transform="translate(825,1008)" d="m0 0 7 4 4-1 2-1-2 9h4v2l-6 4-3 6-4 2v-3h-2v-5l-6 3-5 3h-2l-2 10-3 6h-7v-2h-2v-2l-4-2-2-4 3-7 2-1h6l2-3 1-6 2 4 1 3 7 1 10-11v-6zm-18 25-8 2-2 4v3l6 4h3l4-9v-4zm-24-23 3 1 4 6-2 7-3 3-4 6-3 3h-2l-2 4-12 8-12 6-4 5-4 17-2 7v4l3-1 1 3-9 14-4 10 1 5 10-6h2v-2l10-7 7-4 7-8 8-10 3-5 8-12h2l-1-4 1-6-8 6-5 3-2 2v-3l3-6 4-4 4-1 1-6 3-1 11 3 2 5-1 5-3 5h-2l4 6v7h-1l-2-6-5-1v2l2 1-2 2h-3l-1 3h-4l-5 7-4 4h-2v2h-2l-2 6-11 15-1 9 5-2-2 5-8 17-2 5h-2l-2 5-4 6-7 5-13 2-10 5h-3l2-5 5-5 14-7 5-6 5-5 7-5 2-5 2-1 2-4v-7l-12 9-18 14-7 9-9 14-3-3 8-15 3-7 3-22 2-17 1-3h2v-2l6-2 1-12v-12l-3-7 6 2 8-6 10-6 6-7 2-4h-2l-1 2-1-2 2-5 3-2v-6l-4-1 3-2h7l15-13zm12 37 1 5h3l-1-4zm-5 22-2 4 3-2z" fill="#87966C"/>
<path transform="translate(1070,611)" d="m0 0 2 1-9 11-6 7-8 14-10 14-9 8-15 9-16 7-13 9-8 8-2 4 37-1 14-3 19-7 22-11h6l-2 4-25 16-13 8-10 5-13 4-31 3-16 4-6 3-9-1 1-8 4-8 5-5 2-6 10-15 9-11 9-7 21-10 14-7 7-6 8-12 4-5 11-7z" fill="#89976E"/>
<path transform="translate(89,804)" d="m0 0 27 3 11 3 18 10 12 3 38 1 10 3 15 8 9 7 8 7 12 4 2 6h3l-1 4-13 4-14 1-19 6-16 5-7 1h-25l-28-5-9-2v-4l44-1 16-3 11-4 10-4 13-4 2-1v-2l-12-5-13-4-4-4-14 3h-15l-13-3-16-8-11-7-10-6-20-10z" fill="#88976E"/>
<path transform="translate(788,994)" d="m0 0h4l-1 5-4 6v4l9 3 9-5h6v3l-5 4-4 6-1 3 4 2-2 5h-7l-3 7 2 4 3 2v2h2v2l-7-1-6-1-2 6-6 2-2 4-3 7 11-8 4-3 1 5-1 6-3 3-6 9-3 5-10 12-7 8-6 3-8 6h-2v2l-12 7-2-2 1-5 4-11 8-12-1-2-3 1 1-8 5-19 1-4 6-5 13-7 10-7 5-5 6-9h2l1-7-4-6-5 2-10 9-4 3h-7l-6 4-7-1-2-4 4-5h2l1-3h2l-2-5v-5l7-3 16-4 7-1z" fill="#5A6D34"/>
<path transform="translate(1117,1065)" d="m0 0h2l-1 5-4 13v5l27-9 10-4h3l-1 4-9 8-13 10-10 8-1 3 3 1h7l8-4 5-4 9-3 21-3 15-6h6l-2 4-10 7-12 5-18 2 2 4 4 3 3 1 16 1v3l-5 2-6 1h-19l5 5 8 5v3l-10-1-6-1-36-1-12-6-3-2-7 1-3 3 6 3 10 2v1h-10l-16-3-5 2h-5l-1-2 3-9 10-10h2v-2l3 1-4 6-6 6h3l2-4 9-8h2l2-5 3-9 10-10 9-17zm2 50-7 1-1 2 11 1h17l-1-2-9-2zm-34 2 1 2 1-2zm-2 3m-17 8-2 3h7v-2z" fill="#ACB599"/>
<path transform="translate(863,387)" d="m0 0 2 1-3 12-3 10-9 12-5 6-8 7-12 11-10 12-5 8-5 11-3 9h-2l-3 10-4 1-2-4-10 1-5-1v-6h2l-1-7-2-8 1-2h3l1-2h2l-1-7h-2v-4l-7 1-2-1v-6l6-8 4-5 11-7 16-9 24-11 19-11 7-6z" fill="#4F6330"/>
<path transform="translate(734,425)" d="m0 0 4 4 5 9 2 8 2 2-10 6-1 2-2 22v8l-3 17-3 14-2-4 1-3h-2l-2-5h3l2-5-1-7-1-3 1-5-3-3-4-1-5 3-5-3-1-4-5 4-9-1-5-1-9 1-5 1-3 3-2 7 3 5-2 6-4-2-3-3-9-5-3-3-6-1v2l-6 1-5-1 1-6 2-3 13-2 9 1 1-4 9-2-2-10v-5l2-6-7-5-1-9v-3l5-2h6v-3l9-2 5 3v3h2l2 4 5-2 8 14 7 14 5 11 2-5 2-13 7-15z" fill="#A8B294"/>
<path transform="translate(730,846)" d="m0 0 2 1-1 18 1 13 2 15 1 15 1 10v11l3 7 3-6 5-19 1-4h2l2-4 7-7 9-1 1 5 3 1 1-4-2-1v-2l-2-1h2v-2l7-6 4-6 9-3 1 1v9l-5 12-3 5-2 8-9 11-9 12-8 3-6 4-6 5-16 8-4-1-1-1-2-12-4-15-2-10v-24l1-12 2-12 2-7 4-7h2l2-5z" fill="#647447"/>
<path transform="translate(724,1048)" d="m0 0 3 4 2 13 2 3v18l-2 7-4 1h-2v2h-2l-4 36-3 12-6 10-3 7 2 1 10-16 9-10 13-9 8-7 4-3h2l1 7-3 5-2 1-2 5-9 7h-2l-2 5-3 1-1 3-10 5-7 4-4 7 12-5 4-1 10-2 5-4h2l2-4 4-7 2-1 3-9 8-15 3-5 1 2-5 11-7 18-5 5-2 3h-2l-2 4-10 6-5 2-10 2-10 6-3 3-3-1v-8l-8 1-2-1-2 4-2 1v13l3 16-1 2-2-6-3-11v-11l1-18 2-5 2-1v-5h-3l-3-17-3-34-3-20v-18l5 2 1 1 11 1 2 1 1 6-9-3-1-2-5-1 2 18 3 12 4 21 1 9 1 17 3 17 4 4 3-11 2-12v-8l4-25v-22l-1-1-1-8 4-2 8 1 1-11z" fill="#637346"/>
<path transform="translate(247,877)" d="m0 0 17 1 29 4 27-1 9 3-2 4-10 7-18 8-4 1h-37l-19-1-18 2-25 6-14 2h-15l-5-1v-2l15-4 16-8 23-12 11-5 11-3z" fill="#88976E"/>
<path transform="translate(928,838)" d="m0 0 2 1 1 4v18l-3 8v8l6 18v10l-7 19-1 1-1 9h-2v4l-3 1-8-9v-2l-4-2-11-10-4-1-2 12 9 3 8 6 1 6-5 5-1 7 2 1-5 3-3-5-2-1-4-9-2-2-6-1-2 5-5 1-1-7v-7l-2-6 2-7 7-3 2-6 6-9-2-14-1-11h3l3 5v2l6 1 1 1v13l4 6 10 7 7 4v-10l-2-9-3-9v-15l6-16 4-11z" fill="#8B9971"/>
<path transform="translate(879,1060)" d="m0 0 4 1 9 4 2 8 7 20 2 12 2 6 7 2-6-13-1-5 1-6 1 2h2l1 4h2l4 8v7l-2 10h-4l1 4 4 5 5 5 1 3 4 1v-9l-1-5 1-2 1-12 4 1 3 4 1 9-2 13-2 2-1 11-4 1-5-2-1-2-8-3-10-1 3 7 8 4 1 3 4 2 4 5 5 5 2 6-1 11-17-6-10-9-4-6-4-3v-2l-3-1-5-7-2-6 10 2-2-7-6-4v-2h6l-1-6 14 7-1-12h-2l-2-7-2-3v-8l-4-1-4-19-4-8-4-11-2-6z" fill="#647447"/>
<path transform="translate(279,752)" d="m0 0 8 4 12 11 6 10 8 19 7 8 8 7 12 11 3 11-1 8-1 5 1 5-1 2h-10l-3-1v-2l-6-2-2-5-1-10-3-7 1-6 3-1-1-2h-7l-7 2h-2l-1 2-6-2-1-3 2-3 4-2-2-6-6-5v-4h-3l-4-26-5-12-3-5z" fill="#88966D"/>
<path transform="translate(967,875)" d="m0 0h2l-2 14-1 4v9l1 9-2 14-3 12 8-2 22-12 8-6 4-4 1 4-6 9-5 6-8 7-8 6-5 8-4 9-1 5-9 7-8 2-2-2 1-5 1-8-1-4-4 1-2-4 2-5 3-5 3-2v-7h-4l-1 2v-2l-3-1 1-8 8-24 6-9 5-12 2-5z" fill="#88976D"/>
<path transform="translate(869,879)" d="m0 0h2l-2 5-9 10-14 19-10 9-10 5-9 3-4 4h-6l-5-2h-1l-1-8-3 12-2-4-3-1-8 1-10-2-2-1-5 3h-3l11-13 7-10 1-6 2 4 15 3 6-1 9-13 10-7h3l-1 7-6 10v2h7l13-5 10-8 15-14z" fill="#536735"/>
<path transform="translate(633,528)" d="m0 0h1l3 10 9 14 6 10 2 4 2 15 2 1 1 7v11l-3 6h-2l-1 4-1 2-7 1-3-4-5-1-3-3-3-7-11-10-11-9-14-8-12-6v-1l11 1 12 3 17 7 14 9-2-19-2-27z" fill="#657548"/>
<path transform="translate(874,1172)" d="m0 0 9 6 7 4 2 2 2 5 4 6 1 5h-2v2h2l3 7 7 6 2 4 4 3-1 2h2v2h2l2 7 3 4v2l4 1 1-3h4l1 2 8 1 2-1 2 1 2 5v3l3-1 3-5h2l1 4-1 8-4 3h-4l-2 11-4 2-1-1-1-9-15-3-8-7-6-8-10-5-8-9-4-7-1-9 1-6v-11l-3-5-9-11z" fill="#87966C"/>
<path transform="translate(189,770)" d="m0 0 5 1 14 8 14 5 21 4 16 5 9 4 9 6 4 5 7 3v8l-4 1-3-3-4 1h-3l-1 7-4 1-2 4-9-3-11-10-9-7-19-13-5-5-5-6-17-12z" fill="#88966D"/>
<path transform="translate(788,994)" d="m0 0h4l-1 5-4 6v4l9 3 9-5h6v3l-5 4-4 6-1 3 4 2-2 5h-7l-3 7 2 4 3 2v2h2v2l-7-1-10-1-5 5-3 1-1 2-8 3-3 2h-6l-2-4 5-5h2l1-3 11-7 5-5 4-5 3-5h2l1-7-4-6-5 2-10 9-4 3h-7l-6 4-7-1-2-4 4-5h2l1-3h2l-2-5v-5l7-3 16-4 7-1z" fill="#506430"/>
<path transform="translate(925,925)" d="m0 0h1l1 9 5 12 4-2 6-10 2-2 3 3 6-1v8l-4 2-4 10 1 3h4l2 5-1 7-1 5 2 2-1 7-4 11-3 8-2-8-2 3v-15l2-17 1-4h-8l1 17v16h-1l-1-11v20l-2-4-1-15-9-1-6-3-10-7-6-9-4-8 1-4 4 5 3-2-1-1v-7l4-5h2l-1-4 4 4 4 10 4 15 8 10 1 1-1-13-2-8-1-15-4-2v-2h2v-4h2zm-1 12 1 3z" fill="#AAB497"/>
<path transform="translate(867,1122)" d="m0 0 6 2 9 7 7 3 1-2v3h-6v2l5 2 3 4-1 2-4-2 1 5-6-2 6 10 6 7 5 5 6 7 7 5 5 3-1 5 2 5 2 4 2 6v11 4l-6-4-6-7-7-4-6-1v-2h2l-7-14 5 5 4 3-5-12-6-8v-2l-4-2-10-8-8-8-7-10-5-13v-7h2l4 8 6 8 1 1v-6l11 2-2-4-8-8z" fill="#8B9971"/>
<path transform="translate(546,379)" d="m0 0 3 1 8 13 8 8 18 12 16 9 3 1 2 10 3 5v4l2 10-2 4-5-1-13-9-10-8-8-7-7-8-9-13-6-14-3-11z" fill="#4E632F"/>
<path transform="translate(808,690)" d="m0 0 2 1-2 10-2 30-1 9-3 12-6 14-1 5h-2l-2 6-4 5-1 5-4 2-2 4-4 10-6 5h-1v-10l3-9-2-1-1-5 1-7h2l1-4 3-7 3-6 2-7 3-8 8-11 6-14 7-20z" fill="#4F632F"/>
<path transform="translate(881,951)" d="m0 0 3 2 6 13 6 8 11 9 7 12 11 7 6 7 2 13 3 3 5 3-1 5-8-2-11-6-12-11-7-9-11-5-7-4-7-11-6-11 9 2 7 8 2 1-2-8-6-18z" fill="#8C9A72"/>
<path transform="translate(580,877)" d="m0 0 5 1 14 10 9 9 7 9 2 7 1 5h2l3 5 5 8 3 5 1 4-1 2-3 1-2 6 7 2 1 3-1 5h-2v5l2 1v5l6 8 1 8-1 8-1 5-2 7h-3v2h-5l-4-14-2-16-2-7-1-23-4-19-8-18-9-14-9-9-8-7z" fill="#657547"/>
<path transform="translate(821,301)" d="m0 0h3l-1 8-3 14-2 18-4 18-6 16-7 13-8 10h-2v2l-6 5h-3l1-8 2-9-1-4v-6l2-6 2-4 8-10 8-19 8-24 6-11z" fill="#4F632F"/>
<path transform="translate(977,735)" d="m0 0h15l26 1h29l-2 4-11 5-19 5-26 4-16 6-12 7-7 1-4-1h-3l2-7 4-2v-2h7l5-3-1-8v-4l2-3h2v-2z" fill="#4E632F"/>
<path transform="translate(240,879)" d="m0 0 5 3v6h2l1 4 12 2 5 2v5l-2 1v-2h-2v2l-22 1-18 2-25 6-14 2h-15l-5-1v-2l15-4 16-8 23-12 11-5 3-1h7l3 1z" fill="#4F6430"/>
<path transform="translate(615,1063)" d="m0 0 5 2 9 6 9 4 5 8 3 5 4 14 2 4 10-1v3l-5 1v2h-2l1 8 2 9-1 4-3 1v2h-2l-2 5h-2l-10-20-7-10-1-7-5-1-4-20-7-16z" fill="#657448"/>
<path transform="translate(863,1016)" d="m0 0 5 5 3 4 3 23 2 9-1 12 6 17 2 5 4-1 2-4 3 18-4-2-2-2-1-6h-2l2 6-4-2-1-5-12-2v-1l7-1-6-8-14-2v-2l-12-5v-2h-2l-1-4 6 4 5 3 7 2h7l-17-10-5-5-1-2h4l-1-12-3-3 2-4 1 4 7 2 2-4-2-5h3l2 2h3l4-10zm-17 31m11 17v3l3 2h6l-2-4zm14 14v2h2v-2z" fill="#ACB599"/>
<path transform="translate(789,878)" d="m0 0h2v9l-3 9-4 7-2 8-9 11-9 12-8 3-6 4-6 5-6 3-7 1 1-3h-2l-1-6h-3l-1-3 8-2 4 3h5l1-6 7-25h2l2-5 5-2 1-3h3v3h2v7l10-6 3-1-1-6h-2v-5l8-8z" fill="#4D622E"/>
<path transform="translate(862,994)" d="m0 0h3l-1 7-10 13-8 11h-2l-1 5-4 3h-2v2l-8 3 1 4-4 4-3 8-2 4v2l6 2 3 5 4 2 4 5-12-3-2-1h-14v2l-6 3-3 1-1-1-2-9-2-4 3-2 2-4-1-9h7l3-9 2-7 6-3 5-3h2v5h2v3l5-5 3-5 5-2 2-4 9-9 9-11z" fill="#4E622E"/>
<path transform="translate(793,771)" d="m0 0h1l2 8-1 7 1 3 3-1 6-12v7h-2l-2 10-9 25-1 2-2 21h2l-1 6-4 2-1 3h-2l-1 6-9 12-2-1-1-8 4-21 4-9 2-7 5-11 4-7h2l-1-7-6 5-1 2h-2l-2 4-5 4-4 4-3 2-5 3 3-11 2-4 1-6h1l1 5 6-5 3-10 2-2 3-4 2-1 1-4z" fill="#87966C"/>
<path transform="translate(777,956)" d="m0 0 2 1-3 4-6 5-4 2-7 5-5 3-3 4-5 4-3 4h-2l2 9 1 1 9-1 21-5 13-2 8-3 4 1-4 1-1 6-2 1v-2l-10 4-1 1-20 4-9 3v5l1 5-5 4-3 5 3 3 3 2-5 4-4-1-4-3-5-1-3 1-2 6-3-1 1-15 2-20 2-4 12-12h2v-2h2v-2h2v-2l8-7 3-1 1-2 11-8z" fill="#647447"/>
<path transform="translate(727,208)" d="m0 0h2l2 11 3 17 8 21 11 27 1 14h-4l-3-7v-6l-4-1v3l-4-1-2-2-4 3-11-31-1-5v-17l4-22z" fill="#506431"/>
<path transform="translate(862,528)" d="m0 0h2l-1 4-9 9-4 8-5 16-8 11-7 7-10 6-4 2h-7l-2-2 2-6h-2l-1-4 7-6h2l-1-5 7-6 7-8 15-15 15-9z" fill="#4E632F"/>
<path transform="translate(777,442)" d="m0 0 4 8 3 2 2 4h3v2l6 2 4 2 1 4v2l5 1v-7h2v-2l4-2 1-3-1-5 1 2h2l1-2 3-2 4 1-11 15-6 13-3 9h-2l-3 10-4 1-2-4-10 1-5-1v-6h2l-1-7-2-8 1-2h3l1-2h2l-1-7h-2v-4l-7 1-2-1v-6l6-8z" fill="#647448"/>
<path transform="translate(788,799)" d="m0 0h2l2 4-1 3-4 4-5 13-2 3-3 10-2 4-4 22 1 7 6-5-2 5-3 6 1 3 5-2h4v-2l7-5 3 1-2 3-6 3-6 4-14 3-2-5-4-22v-19l2-10 2-5 3-3 4-2 3-1 1-3h2l1-3 4-4h2l2-4z" fill="#647447"/>
<path transform="translate(1072,1102)" d="m0 0h12l-1 5-2 3h-4v2l-8 7-4 4-2 9h9l1-2 16 3h19l26 4v2l-9 2-2 6-7 3h-7l-15-4v-2l-24-4v-2l-7-2-5-3-9-1 1-4 8-10 9-9z" fill="#87966C"/>
<path transform="translate(406,998)" d="m0 0 16 1 13 4 12 4v2l7 1 5 3 6 3 3 3 5 2 9 7 7 2 5 3-1 5-3 1h-8l-14-5-27-16-16-8-10-4-16-2v-3z" fill="#506430"/>
<path transform="translate(547,549)" d="m0 0 3 1 1 2 1 12 2 7 4 11 4 6 2 5 9 10 1 4h2l4 4v3l4 1v2l4 1v-2h2l3 6v6l-5 5-3-1v-2h-2v4l-3 1-2-1-3-6v-3l-7-2-10-15-7-16-3-11-1-14z" fill="#657548"/>
<path transform="translate(889,1129)" d="m0 0 10 5 1 6-1 4 2 4 11 6 1 3 4 2 4 5 5 5 2 6-1 11-17-6-10-9-4-6-4-3v-2l-3-1-5-7-2-6 10 2-2-7-6-4v-2h6z" fill="#5C6F37"/>
<path transform="translate(866,914)" d="m0 0 6 2-1 2-9 3-6 4-14 16-5 5-8 10-4 11-4 3 1-4 2-5v-7h-4l-1 2-3 1-12 21-3-1 1-8 3-4 3-12 1-2 1-13 2-3 3 9 5-2 5-3h2l2-4 5-6 13-9 8-4z" fill="#657549"/>
<path transform="translate(745,944)" d="m0 0h1l1 7 1 20 4-1 2-4 3-5 7-1 3-2 9-1-3 3-8 6-3 1-3 3-8 7-3 1v2h-2v2h-2v2l-8 7-5 5-2-15-3-13-1-10-1-4 11-4 6-4z" fill="#89976E"/>
<path transform="translate(770,1165)" d="m0 0 1 2h-2l-1 3-3 2-3 8-9 12-7 7-9 4-16 3-20 2 2-1 2-6 5-5 11-7 7-4h3v-2l10-4 4-1 3 1v4h6l6-10 4-4 3-1z" fill="#87966D"/>
<path transform="translate(894,894)" d="m0 0h1l1 10-4 14-1 9 9 3 8 6 1 6-5 5-1 7 2 1-5 3-3-5-2-1-4-9-2-2-6-1-2 5-5 1-1-7v-7l-2-6 2-7 7-3 2-6 7-10z" fill="#405325"/>
<path transform="translate(952,713)" d="m0 0 1 3-3 6-1 5 3 1h-13l-7 4-13 11-8 8-12 9-7 3-6 5-1 2h10l9-1-3 2-7 4-2 6-6-2-8-3-11 13-1-4h-3l2-4 10-11 6-8 11-9 5-6 6 1 7-2 4-4-4-2 3-9 4-5-1 9 10-8 10-5 10-4z" fill="#ABB498"/>
<path transform="translate(807,610)" d="m0 0h2l-2 7-7 14-3 27-2 17-4 16-5 5-2 1-2-5 1-4h2l-2-6 2-6v-7h-2v-11l1-6-1-4h2v-13l7-11 10-10z" fill="#516531"/>
<path transform="translate(825,1008)" d="m0 0 7 4 4-1 2-1-2 9h4v2l-6 4-3 6-4 2v-3h-2v-5l-6 3-5 3h-2l-2 10-3 6h-7v-2h-2v-2l-4-2-2-4 3-7 2-1h6l2-3 1-6 2 4 1 3 7 1 10-11v-6zm-18 25-8 2-2 4v3l6 4h3l4-9v-4zm-20 11 13 3 2 5-1 5-3 5h-2l4 6v7h-1l-2-6-5-1v2l2 1-2 2h-3l-1 3h-4l-5 7-4 4h-2v2h-2l-1 3-1-3 9-10 4-8 5-7h2l-1-4 1-6-8 6-5 3-2 2v-3l3-6 4-4 4-1 1-6zm8 3 1 5h3l-1-4zm-5 22-2 4 3-2z" fill="#8A9870"/>
<path transform="translate(1067,1089)" d="m0 0h5l5 5-1 8 8-4 4 1-2 5-2 1v-3l-9 1-3-1-2 4-9 10-8 9-4 7h9l12 6-4 1-16-4v2l6 1 11 6-4 1-11-4-6-1-5-1-5 2-3 1v-10l5-10 10-13 8-7 5-8zm2 2-4 5-1 8 4-1 6-11zm-17 28m-2 1-8 9-3 5v2l4-2 8-9 1-5zm-12 16-1 2h2z" fill="#B7C0A7"/>
<path transform="translate(633,528)" d="m0 0h1l3 10 9 14 6 10v15l2 1 2 7v9l-3 7h-2v2h-4l-3-1v-3h-2v-5l-5-2h-2v-4l5-3h3l-3-6v-5h-2l-3-15-2-21z" fill="#5B6D35"/>
<path transform="translate(640,361)" d="m0 0 7 1v4l-2 1 1 3h2v6 3l3 7 7 1-1 4h-3v2l3 1-4 2h-3l1 7 7-1 1-1h6l-1 6-4 5-2 4h-2v-2l-3 1-3-1v4l-5 1-4-2-1-2-2-22v-22z" fill="#657548"/>
<path transform="translate(785,1044)" d="m0 0 2 1-2 6-6 2-2 4-3 7 11-8 4-3 1 5-1 6-3 3-6 9-3 5-10 12-7 8-6 3-8 6h-2v2l-12 7-2-2 1-5 4-11 3-3-2 6 6-1 5-5 3-4 5 1 3 1 4-2 3-4 2-4 4-5h-2v-2h2v-2l-4-1-1-2 1-2v-8l2-4h2v-3l4-2 6-7h2v-2h2z" fill="#637346"/>
<path transform="translate(837,477)" d="m0 0h2v10l-6 26-10 30-4 9-3 2-2 3v-2l-3-1v-3l-2-3 1-7 4-4-1-8-2-2 4-4 5-7 3-9 10-21z" fill="#67774A"/>
<path transform="translate(1041,1138)" d="m0 0 5 1 13 3 4 2 14 2 4-1-8-4 4-1 11 2 6 2-4 2v4l-13 4-4 2h-12l-12-3-13-2-5-4h-3l1 4 20 10-4 1-6-2-8-4-7-3v-2h-3l2-4 8-5 5-2z" fill="#8C9A72"/>
<path transform="translate(808,733)" d="m0 0 4 4 5 11v2l5-3 20-10h2l-1 6-4 1-2 6-5 9-4 8-2 7-4 6-12-3-1-5v-8l3-7-1-11-3-9z" fill="#405324"/>
<path transform="translate(665,1154)" d="m0 0 2 4 4 4 8 19 2 7 1 3v12l-13 1-3-2v-5l-3-1v-7h-2v-14l-3-6-1-11h3v-2z" fill="#647447"/>
<path transform="translate(575,1032)" d="m0 0 3 1 2 3 3 4 12 18v11l3 6 2 5 3 3v2h2v2l3 1v3l-5-1-9-6-9-8-9-16-4-11 1-10z" fill="#4D622E"/>
<path transform="translate(490,1060)" d="m0 0 9 1 10 3 22 12 17 4 9 1v2l7 1-1 7-12 2-9-3-7-2-10-3-16-11-14-8-5-3z" fill="#586B38"/>
<path transform="translate(792,949)" d="m0 0 1 2 4 1-1 4-2 4-4 10h-3l-3 10-5 5-6 1v2l-5 3h-10l-1-4 5-6 7-1v-2l-3-1 1-11 7-4 5-6 11-1 1-4z" fill="#4C612D"/>
<path transform="translate(821,301)" d="m0 0h3l-1 8-4 18h-5l-1 5-4 9v2l-5 5 1 2-2 4-3 1 1 7-5 1 2 2h-2l1 4-3 9-2 5v2h-2v7l3 4v2h-2v2l-6 5h-3l1-8 2-9-1-4v-6l2-6 2-4 8-10 8-19 8-24 6-11z" fill="#6B7B4F"/>
<path transform="translate(783,1010)" d="m0 0 3 1 4 6-2 7-3 3-4 6-3 3h-2l-2 4-12 8-12 6-2-1 8-7 3-6h-2l-1 2-1-2 2-5 3-2v-6l-4-1 3-2h7l15-13z" fill="#88976D"/>
<path transform="translate(879,1060)" d="m0 0 4 1 9 4 2 8 7 20 2 12 1 7 4 7-3 2 1 3 2 1-2 3-4-1v-3h-2l-2-7-2-3v-8l-4-1-4-19-4-8-4-11-2-6z" fill="#536734"/>
<path transform="translate(546,379)" d="m0 0 3 1 8 13 8 8 12 8 2 7-2 1v3h-2v11h-4l-7-8-9-13-6-14-3-11z" fill="#415426"/>
<path transform="translate(783,903)" d="m0 0 2 4 15 3h5l-2 5-5 15-1 6-2-4-3-1-8 1-10-2-2-1-5 3h-3l11-13 7-10z" fill="#8A9970"/>
<path transform="translate(691,1166)" d="m0 0 5 1 5-1 1 5v4l4-2 6-4 2 1-3 1v2l-4 4-4 8-4 1-9-3v8l3 5-1 16 6-1v-3l2 1v24l-1 2h-5l-3-4-1-12 1-4-3-21-2-9v-13l3-1z" fill="#5A6D34"/>
<path transform="translate(869,879)" d="m0 0h2l-2 5-9 10-14 19-10 9-8 3-9-5v-13l2 1h7l13-5 10-8 15-14z" fill="#88976E"/>
<path transform="translate(240,879)" d="m0 0 5 3v6h2l1 4 12 2 5 2v5l-2 1v-2h-2v2l-22 1-17 1 3-3 9-1 6-2 2 1-3-12v-3h-10l-2 2-10 4-3 2-9 2v2h-4v2l-14 7-9 6 4 2h-15l-5-1v-2l15-4 16-8 23-12 11-5 3-1h7l3 1z" fill="#66764A"/>
<path transform="translate(542,736)" d="m0 0 5 2 9 14 6 11 11 16 2 12-1 3 3 3v2h-2v-2l-5 1v2l1 11-1 1 2 2h-2l1 4-3-2-6-23-3-23-11-21-5-9z" fill="#67774A"/>
<path transform="translate(844,1025)" d="m0 0 7 6 2 5 2 7-3 3-7-3-1-4h-2v-2l-7 2-3 2-1 8 8 6 3 3-10-2-9-1 1 4 16 7 1 4h2v2l9 3 5 2-2 2h-17l-11-6h-3l-2 4-1-5 2-1 9 1h3l-2-3-5-3-1-3-6-3-1-4 3-3 3-9 3-2 1-3-2-1 9-3v-2l5-3z" fill="#909E77"/>
<path transform="translate(181,868)" d="m0 0 7 1 7 3 2 1-1 4-5 2-7 1h-25l-28-5-2-2 7-3h29z" fill="#4F6430"/>
<path transform="translate(381,812)" d="m0 0h2l3 16 4 16 4 6 4 5 1 4-5 2h-7l-10-6-9-8-2-6h-2l1-3 8 1 3 3 8 4-1-9h-2l-2-8v-13z" fill="#566938"/>
<path transform="translate(803,1091)" d="m0 0 9 1 2 4-2 3h-2l1 7 4 1 1 4-4 7-4 2v16l-8 4h-2l-5-7-1-5 5-5 7-6-4-2-1-3-2-1 2-6 3-5v-6z" fill="#647447"/>
<path transform="translate(862,528)" d="m0 0h2l-1 4-9 9-4 8-2 8h-1l-1-10 4-7-7 2-8 8-5 6-4 4-1 6 1 5-1 2h-2v5h-2l-1 3-2 1 1 3h7l-4 3-6 3h-7l-2-2 2-6h-2l-1-4 7-6h2l-1-5 7-6 7-8 15-15 15-9z" fill="#657548"/>
<path transform="translate(89,804)" d="m0 0 27 3 11 3 10 6 4 9 1 5-8 1-22-14-22-11z" fill="#4F6430"/>
<path transform="translate(908,938)" d="m0 0 4 4 4 10 1 3 1 12 2 9-2 4-8-4-5-5-4-5-5-10 1-4 4 5 3-2-1-1v-7l4-5h2z" fill="#8A986F"/>
<path transform="translate(906,1216)" d="m0 0 4 1 5 5-1 2h2v2h2l2 7 3 4v2h2l2 3h4v2l10 2 4 2 1 4-2 6-2 1-8-7-5-3-8-2h-3v-2l-4-2-3-2v-2l-5-2-1-4h2v-7z" fill="#596C33"/>
<path transform="translate(928,1237)" d="m0 0h4l1 2 8 1 2-1 2 1 2 5v3l3-1 3-5h2l1 4-1 8-4 3h-4l-2 11-4 2-1-1-1-9-15-3-8-7-6-8 1-3 5 5 9 3 5 2 6 4 6 5 2-1 1-8-4-2-5-1-6-3-4-1-1-2h2z" fill="#68774B"/>
<path transform="translate(863,1102)" d="m0 0 11 1v1l-7 1 9 5 6 1h12l-1-6 3 1 2 10 2 3v5h2v2l-11-2v2l4 6-6-3-1 3-3-7-16-8-5-4-2-4-7-3 1-2 7-1z" fill="#8A986F"/>
<path transform="translate(1070,611)" d="m0 0 2 1-9 11-6 7-8 14-4 1-2 5-1 1h-5l-3-3 1-10 8-11 11-7z" fill="#506431"/>
<path transform="translate(805,723)" d="m0 0h1v13l-4 16-6 14-1 5h-2l-2 6-4 5-1 5-4 2-2 4-4 10-6 5h-1v-10l3-9 4-1 2-4 8-6 6-8h2l-1-7-1-8 2-6 2-4 1-3 1-4 3-7 1-4h2z" fill="#6C7B4F"/>
<path transform="translate(543,1127)" d="m0 0 13 4 12 6 11 8 5 4 2 8 4 2v5l-3 2-4-2-3-4-5-1-18-20-14-9z" fill="#586C3A"/>
<path transform="translate(1120,1121)" d="m0 0h21l7 3 12 8v3l-10-1-6-1v-2h-29l-9-2-4-2v-2z" fill="#87966C"/>
<path transform="translate(776,819)" d="m0 0 3 1-3 12-3 10-3 18v12l-4 1-3-3-2-9-1-10 1-9 3-2 1-10h2l2-5 5-3z" fill="#596C33"/>
<path transform="translate(972,802)" d="m0 0h3v3l-16 8-10 6-14 5-10 2h-5l-3-5h4v-2l13-6h5v-2l20-6z" fill="#596C3B"/>
<path transform="translate(590,1165)" d="m0 0 4 1 2 6 2 2 4 3v3h2l4 8v2l5 1 5 6v2h4v2h2v-2l5-1 2 1 1 9-7 2h-3l-3-4-3-1-1-2-6-3-5-5-3-5-3-1v-2l-2-1-2-5-3-1-1 2-1-5 4-10-3-1z" fill="#647447"/>
<path transform="translate(764 1e3)" d="m0 0h5l-2 1 3 16 2 2-6 5h-7l-6 4-7-1-2-4 4-5h2l1-3h2l-2-5v-5l7-3z" fill="#5A6D34"/>
<path transform="translate(863,1016)" d="m0 0 5 5 3 4 3 23 1 4v10l-4 2 1 7 2 1-1 4-4-8-3-1-1-6 1-8-4-2-1 2-3-1 1-5-1-3 3-2 3-14z" fill="#8A9971"/>
<path transform="translate(1117,1065)" d="m0 0h2l-1 5-6 19-1 5h-2v2l-5 1-1 5-1 2h-2l-1 4-5 2-5 1 3-13h2l2-6 7-8 7-14z" fill="#8A9970"/>
<path transform="translate(878,637)" d="m0 0h2l-1 14 1 11-4 16-4 1-2 4-5-2v-13l4-16 7-13z" fill="#46592A"/>
<path transform="translate(343,940)" d="m0 0h16l9 3 11 5v2l4 1v2l5 2 3 2-1 2-8 1-17-7-16-6-15-3 3-3z" fill="#596C34"/>
<path transform="translate(279,752)" d="m0 0 8 4 12 11 6 10 3 7v7l-2 1-8-7-3-3-5-3-3-5-4-12-5-9z" fill="#526631"/>
<path transform="translate(896,1176)" d="m0 0 4 2 8 7 1 2 5 3 6 7 2 6v11 4l-6-4-6-7-6-5-1-9-7-14z" fill="#637346"/>
<path transform="translate(912,1097)" d="m0 0h3l4 6h6l8 8 1 4h-2l-3-4-2 1-1 12h-2l2 5v9l-3 1-3-2-3-5-6-7-2-2 1-3h4l1-17zm7 30 1 5 4 1v-4z" fill="#89986F"/>
<path transform="translate(303,935)" d="m0 0h8l2 6-2 2-3 2-16 2-13-2-15-1-4-2 15-5z" fill="#546836"/>
<path transform="translate(738,250)" d="m0 0 3 4 12 30 1 14h-4l-3-7v-6l-4-1v3l-4-1-2-2-4 3-3-11 4-1 3-1-1-3h3l1-3-2-4 1-6-3-6z" fill="#67774A"/>
<path transform="translate(229,883)" d="m0 0h8l2 1 3 9v6l-7 1-5 1-6 2-7 3-11 2 2-2 5-1v-2h3l2-5 1-5h2l-2-3-3 4-1-4 8-4 5-2z" fill="#5A6D35"/>
<path transform="translate(968,736)" d="m0 0h5l-5 5 3 9 3 4 7-2 11-2 4-1v2h7v1l-14 2-16 6-12 7-7 1-4-1h-3l2-7 4-2v-2h7l5-3-1-8v-4l2-3h2z" fill="#67774A"/>
<path transform="translate(547,549)" d="m0 0 3 1 1 2 1 12 6 21 3 5v4l3 1v5 3l-2 6-4-1-7-16-3-11-1-14z" fill="#4A5C2E"/>
<path transform="translate(906,1089)" d="m0 0 1 2h2l1 4h2l4 8v7l-2 10h-4l1 4 4 5 2 3h-7l-3 2v6l5 1 7 4-3 1-5-2-10-1 1 6-3-2-1-4 1-8 4 1v-9h3v-3l-2-4 3-2-5-8 2-2 1 3 7 2-6-13-1-5z" fill="#637346"/>
<path transform="translate(587,416)" d="m0 0 15 7 2 10 3 5v4l2 10-2 4-5-1-1-3-1-5-7-6-1-5v-5l-4-6z" fill="#657548"/>
<path transform="translate(627,293)" d="m0 0 5 1 7 8 7 20 3 6v6h2l2 9-6-3-2-5-5 1-2-4-3-14-5-17z" fill="#67774A"/>
<path transform="translate(862,994)" d="m0 0h3l-1 7-10 13-8 11h-2l-1 5-4 3h-2v2l-8 3 1 4-4 2-1-13 2-1v3l5-5 3-5 5-2 2-4 9-9 9-11z" fill="#526633"/>
<path transform="translate(890,921)" d="m0 0h1v6l9 3 8 6 1 6-5 5-1 7 2 1-5 3-3-5-2-1-4-9-2-2-6-1 1-3 5-2z" fill="#6D7C51"/>
<path transform="translate(775,1126)" d="m0 0 2 1 1 11h-2v16l3-1h2l-2-4 1-6 1-5 7 1 4 5 3 1 2 5h-2l-1 5-8 5-11 4h-3l1-15 1-13 1-7z" fill="#647447"/>
<path transform="translate(792,624)" d="m0 0 1 3-3 4-1 4 1 5-1 7-1 21h2l1 5 4-1-2 11-2 8-5 5-2 1-2-5 1-4h2l-2-6 2-6v-7h-2v-11l1-6-1-4h2v-13z" fill="#667649"/>
<path transform="translate(1067,1089)" d="m0 0h5l1 2-5 2-4 9-6 11-6 7-11 9-4 4h-3l1-6 12-17 9-8 5-8z" fill="#919E78"/>
<path transform="translate(812,841)" d="m0 0 1 2-5 10h-2l-2 7-5 7-3 2-7 2-4 3h-2v2h-4l-1 2-5 1-1-4 4-8 2-1 2 4h4l2-6 4-1 1-4 5-2 3-6h3l1-3 4-2 2-4z" fill="#596C33"/>
<path transform="translate(588,635)" d="m0 0 5 1v4l2 1 1 7-3 2h2l3 9-1 3 4 4-2 1 1 7-2 3h-3l-10-26-4-8 1-6 4 3 1-4z" fill="#68784C"/>
<path transform="translate(436,1074)" d="m0 0 11 3 29 12 8 3 6 2 3 3v3h-8l-10-2-23-12-15-9z" fill="#67774A"/>
<path transform="translate(607 1e3)" d="m0 0 5 4 12 20 7 18 8 28-1 2-7-3-2-4h3l-11-33-11-24-3-6z" fill="#93A07A"/>
<path transform="translate(892,1160)" d="m0 0 7 3 3 1v2l5 1 7 1v2l8 1 1-5 3 3 2 6-1 11-17-6-10-9-4-6-4-3z" fill="#637345"/>
<path transform="translate(707,920)" d="m0 0 3 1v34l-2 22-3 10-3 1-2-2 1-16 1-1 1-7 1-19 2-9z" fill="#647446"/>
<path transform="translate(705,497)" d="m0 0 4 2 1 3h2l3 4 3 1 1 9v3l5 1 3-3-1 7-4 14 8-3 4-2-2 4-6 7-5-1-4-5v-12l-6 2 1-17-6-12z" fill="#ABB497"/>
<path transform="translate(408,979)" d="m0 0 14 2 5 1v2l3-1 6 1v3l2-1h11l8 4-5 2v2h-15l-16-4-11-6-3-4z" fill="#637346"/>
<path transform="translate(527,1075)" d="m0 0 16 4 14 2v2l7 1-1 7-12 2-9-3-7-2-10-3-7-5 3-2 6 5 11 1h1v-2l-4-2-9-3z" fill="#667649"/>
<path transform="translate(1151,1075)" d="m0 0h3l-1 4-9 8-4 3-10 4-3 2h-8l-4-4 3-5 13-5 16-5z" fill="#8C9A72"/>
<path transform="translate(633,528)" d="m0 0h1l3 10 3 5 3 7 7 11 1 8-4 2-8-1-3-7-2-13-1-12z" fill="#4C612D"/>
<path transform="translate(1059,689)" d="m0 0h2l-1 4-31 19-8 3h-6l-2-1v2h-4l1-5 7-4 5-1 6-3 7-3 11-4 1-2 8-4z" fill="#536733"/>
<path transform="translate(788,994)" d="m0 0h4l-1 5-4 6h-2l-2 4-6 7-4 3-4-1-2-11v-5l7-3 7-1z" fill="#4E632F"/>
<path transform="translate(583,564)" d="m0 0 11 1 12 3 9 4v2l4 2 8 6 2 4 2 2-6 2-3-2v-2l-4-1-7-4-5-4-16-8-7-4z" fill="#546834"/>
<path transform="translate(1068,681)" d="m0 0h6l-2 4-9 6h-2v-2l-10 4-4 1-1 3-13 5-9 4-5 2-6 2-3 2-1 4h4v-2l5 1-3 2-4 1h-11v-2l-2-1 2-3h3l2-2 6-1v-2l6-3 8-1v-2l8-1v-3l15-6z" fill="#657548"/>
<path transform="translate(1188,1089)" d="m0 0h6l-2 4-10 7-6 3-32 1-1-3 9-3 21-3z" fill="#8B9971"/>
<path transform="translate(1139,1108)" d="m0 0 8 4 9 1 5 2 16 1v3l-5 2-6 1h-10l-16-4v-2l-10-1v-4z" fill="#8E9B74"/>
<path transform="translate(730,846)" d="m0 0 2 1-1 12h-2l1 10v6l-2 2-3 7-5 2-2-3 2-13 1-5 1-9 2-3h2l2-5z" fill="#596C34"/>
<path transform="translate(666,1169)" d="m0 0 5 2 3 3 3 7 1 11-1 5-1 3-5-1-4-9-3-5-1-13z" fill="#5A6D34"/>
<path transform="translate(869,879)" d="m0 0h2l-2 5-9 10-10 13-5 4-5 5-4 3-2-4 1-5h2v-2h2v-3h2l1-3 9-7 15-14z" fill="#667649"/>
<path transform="translate(794,363)" d="m0 0 4 2h-2l1 4-3 9-2 5v2h-2v7l3 4v2h-2v2l-6 5h-3l1-8 2-9-1-4v-6l2-6 2-4z" fill="#657548"/>
<path transform="translate(589,1090)" d="m0 0 11 2 9 2 7 4-2 1-4-1 4 6 6 7-1 3-5 2-5-9h-2l-4 4h-7l4-1-2-1-3-6h6l-4-7 2-1-4-1-3 1-3-3z" fill="#A9B396"/>
<path transform="translate(866,914)" d="m0 0 6 2-1 2-9 3-6 4-7 8-6 2-4-2-3-1 5-8 10-6 4-2z" fill="#566A37"/>
<path transform="translate(1e3 1149)" d="m0 0 2 1-12 23-1 5 4 2 1 2h3l-2 5-5-1-7 9-5-1-2-3 1-5 10-17 7-11zm-14 31 1 2zm-1 2-3 7h2l3-6z" fill="#AFB89D"/>
<path transform="translate(542,736)" d="m0 0 5 2 9 14 5 10v5h2l1 7 5 2 1 6 1 4-4 1-3-1-1 2-2-4-2-14-11-21-5-9z" fill="#708054"/>
<path transform="translate(580,877)" d="m0 0 5 1 14 10 9 9 2 3 2 11-1 3-3-1-7-12-9-10-12-11z" fill="#506234"/>
<path transform="translate(751,1117)" d="m0 0h2l1 7-3 5-2 1-2 5-9 7h-2l-2 5-3 1-1 3-4 1 6-8 5-4 2-3h2l-2-4-5 1-3 1v2l-5 1-2 4-1 3-6 2 6-8 18-14z" fill="#647447"/>
<path transform="translate(820,954)" d="m0 0h4l1 7-5 11-9 9h-7l5-10 1-6 6-9z" fill="#5A6D34"/>
<path transform="translate(874,1172)" d="m0 0 9 6 7 4 2 2 2 5 4 6 1 5h-2l1 13-2 1-3-9-3-8-6-8-8-10z" fill="#637345"/>
<path transform="translate(888,875)" d="m0 0 4 4 1 4 6 1 1 1-1 15 3 7v6l1 2-5-1-5-2 2-8-1-9-2 5-2-2-3-16v-6z" fill="#536734"/>
<path transform="translate(967,976)" d="m0 0h2l-1 19 5-3h5l-5 5-5 2v3l-2 1-2 4-4-1-3-7 4-15z" fill="#707F55"/>
<path transform="translate(729,617)" d="m0 0 5 1 2 6h7l4-5 3-1-1 7-2 3-7 3v4h-8l-1-3-4-1v-2l-4-1-1-2 2-6z" fill="#647447"/>
<path transform="translate(703,1008)" d="m0 0h4l-1 8 5 1h9l1 6h-2l-1 11 1 5v7l-1 2-4 1-1-1v-17l-2-8-3-2-3 5-2 2 1-9-1-1z" fill="#A9B396"/>
<path transform="translate(815,1032)" d="m0 0 5 1 3 4v8l-3 6-4 2-8-1-1 2-5-4-1-3 8-2 5-12z" fill="#3E5123"/>
<path transform="translate(751,902)" d="m0 0 2 1-4 5-3 10-4 15-4 4-3-9v-17l4-1 6-4h2zm-6 6-6 7-1 4 5-5 3-4z" fill="#89986F"/>
<path transform="translate(451,1009)" d="m0 0 14 7 3 3 5 2 9 7 7 2 5 3-1 5-3 1h-8l-14-5-1-2 8 1 1 1 7 1-1-3-3-2v-2h-3l-1-2-5-1v-3l-9-3-5-4-6-3-1-2z" fill="#667649"/>
<path transform="translate(750,1146)" d="m0 0 2 3 1 5-1 3-5 1-4 9h-2v-2l-7 2-1 4-3 1-2-2-1-2-5-1v2l-5 1-3-2 5-3 8-1 12-6 7-6z" fill="#5A6D34"/>
<path transform="translate(818,448)" d="m0 0 4 1-11 15-3 6-3 2-2 5-3 4-3-4v-10l-4-1-1-3-2-1 1-4 8 4 1 4v2l5 1v-7h2v-2l4-2 1-3-1-5 1 2h2l1-2z" fill="#5C6F37"/>
<path transform="translate(1073,1091)" d="m0 0 4 2-1 9 8-4 4 1-2 5-2 1v-3l-9 1-3-1-2 4-9 10-8 9h-2l1-7 7-8 4-8 1 2 4-1 2-5 3-6z" fill="#B8C0A7"/>
<path transform="translate(825,1008)" d="m0 0 7 4 4-1 2-1-2 9h4v2l-6 4-3 6-4 2v-3h-2v-5l-7 3 2-5 6-6v-6z" fill="#637345"/>
<path transform="translate(792,770)" d="m0 0 2 1-6 10-2 6-4 2-2 4-4 10-6 5h-1v-10l3-9 4-1 2-4 8-6z" fill="#647447"/>
<path transform="translate(504,1042)" d="m0 0 1 2h14l6 4h3 3l2 2 6 1-3 4-7 1-7-1-17-7-3-5z" fill="#68784C"/>
<path transform="translate(973,736)" d="m0 0h14l-1 4 1 1 1 3-6 2-3 6-4 1-2-4-3-2v-2h-2l-1-4 4-4z" fill="#4D612D"/>
<path transform="translate(865,913)" d="m0 0h6l6 3h3l3-3-1 4-7 3-1 7 2 5v14l4-1-2 5-2 3h-2v-3l-3-1-1-5 1-5h-2l-1-5 4-10-1-4-5-1v-1l5-1-3-2-10 1 3-2z" fill="#667649"/>
<path transform="translate(969,783)" d="m0 0 5 1v2l-20 12-3 2h-10l-1-4 5-3 7-4 11-3z" fill="#68774B"/>
<path transform="translate(936,1176)" d="m0 0h2l3 11v3h2l1 7h-2v5l2 1-1 21-2-4v-16h-4l-1 2-4-18v-7l2-3h2zm0 10 1 2zm1 2v11l3 2-1-9z" fill="#AEB79B"/>
<path transform="translate(761,1169)" d="m0 0 3 1-6 7-4 7-6-1v-4h-6l-8 4h-3v2l-9 4-15 10-4 8-2-1 4-8 10-9 4 1v-2l9-5 2-2 10-4 6-3h5l4-1 5-2z" fill="#647447"/>
<path transform="translate(767,1166)" d="m0 0v3h-6l-1 3-4 1-2 2h-3-5l-6 3-11 5-8 5h-2v2l-5 1-6 6-2-1 6-7 4-6 8-2 5-1v-2l10-4 3-4 6 1h5l6-3 7-1z" fill="#5A6D34"/>
<path transform="translate(222,883)" d="m0 0 2 1-3 4-7 4-9 2v2h-4v2l-14 7-9 6 4 2h-15l-5-1v-2l15-4 16-8 23-12z" fill="#748358"/>
<path transform="translate(365,838)" d="m0 0 8 1 6 6v2h5l4-1 2 4 2 2-1 4-3 1-10-4-7-3-3-3-2-6h-2z" fill="#5A6D35"/>
<path transform="translate(406,998)" d="m0 0 16 1v2l5 1 8 4-2 2h-13l-10-3-11-1v-3z" fill="#415426"/>
<path transform="translate(723,719)" d="m0 0 7 1 2 6-5 10h-3l-3 3v-2h-4v-8l3-8z" fill="#637346"/>
<path transform="translate(677,1057)" d="m0 0 5 2 1 1 11 1 2 1 1 6-9-3-1-2-5-1 2 18v11l-3-3v-3h-2l-2-10z" fill="#617244"/>
<path transform="translate(603,638)" d="m0 0 5 1v11l1 2-3 3h3l1 11v3 6l-4 3-3-1v-6h-2l1-3 1 1 1-6-2-8 1-7-1-4z" fill="#657548"/>
<path transform="translate(1e3 913)" d="m0 0 1 4-6 9-5 6-8 7-5 2-1-5 6-7 2-4 11-7z" fill="#506532"/>
<path transform="translate(386,969)" d="m0 0 17 5 11 4 7 2v1l-13-1 5 5 8 4 10 3v2l2 1-9-2-24-12-9-6-5-3z" fill="#94A17C"/>
<path transform="translate(789,878)" d="m0 0h2v9l-3 9-1 2-5 1-1-2-6-2v-5l8-8z" fill="#4F632F"/>
<path transform="translate(589,1051)" d="m0 0 5 5 1 2v11l3 6 2 5 3 3v2h2v2l3 1v3l-5-1-9-6-9-8-2-4 4 1 5 4 1 2 1-3-3-8v-13z" fill="#637346"/>
<path transform="translate(736,244)" d="m0 0 2 3-1 6 3 6-1 5 3 4-1 3-1 1h-3v2l-4 3-4-2-1-3 3-3 1-8-1-4 2-6z" fill="#5B6E35"/>
<path transform="translate(1041,630)" d="m0 0 1 4-2 3v4l6-4 4-1 3-4h2l-2 5-5 8h-3l-2 5-1 1h-5l-3-3 1-10z" fill="#68774B"/>
<path transform="translate(736,1132)" d="m0 0 4 1 1 4-4 4h-2l-1 3-5 5-3 2h-6l-2-4 5-2 1-4 4-4h3v-2z" fill="#5A6D34"/>
<path transform="translate(849,539)" d="m0 0 2 1-4 7v7l-4 5-5 1-1-3-3-1v-6l10-10z" fill="#3E5123"/>
<path transform="translate(571,822)" d="m0 0h6l6 5-1 3 2 1-1 8 4 1 5 5 1 2h-3v2l-4-1-7-9-7-12z" fill="#667649"/>
<path transform="translate(386,799)" d="m0 0 6 2 11 8 9 10 6 8-1 4-5-5-5-4-5-5-9-10-7-5z" fill="#667749"/>
<path transform="translate(837,927)" d="m0 0 2 1-4 2-1 4-4 5h-2v2l-5 4-4 4-5 9-3 3h-2l2-26 2 4 2 5 5-2 5-3h2l2-4 5-6z" fill="#8C9A72"/>
<path transform="translate(888,905)" d="m0 0v3l-4 9-2 4h-2l1 7-1 10 3 1-1 4-3 3h-3l-1-7v-7l-2-6 2-7 7-3 2-6z" fill="#556835"/>
<path transform="translate(890,839)" d="m0 0h2v2l4-1-3 4-5 2-11 10-6 7h-2v-7l4-6 7-6z" fill="#647447"/>
<path transform="translate(616,920)" d="m0 0h3l4 6 4 8h-2v3h3l-1 3-5 3-2-1-1 2-2-5-3-12v-5z" fill="#516531"/>
<path transform="translate(896,1053)" d="m0 0h2l4 9 9 16v3l-3 2-5-3-5-8-2-7z" fill="#586A38"/>
<path transform="translate(933,976)" d="m0 0h1l2 18 3 8 2-10 3 3-1 11-1 2 1 7h-2l-1 6-2-3-4-12-1-9zm7 28 1 2z" fill="#93A07B"/>
<path transform="translate(879,658)" d="m0 0 1 4-4 16-4 1-2 4-5-2v-13l2 3 4-2 2-4 2-1 3-5z" fill="#657548"/>
<path transform="translate(862,528)" d="m0 0h2l-1 4-9 9-4 8-2 8h-1l-1-10 4-7-7 2-13 13 1-4 12-12 15-9z" fill="#586B3A"/>
<path transform="translate(776,1101)" d="m0 0h2l-1 10-6 12-4 2-3-4 1-8 7-9z" fill="#425526"/>
<path transform="translate(844,1025)" d="m0 0 7 6 2 5 2 7-3 3-7-3-1-4h-2l-1-3h-5l1-3 5-3z" fill="#88976E"/>
<path transform="translate(821,301)" d="m0 0h3l-1 8-4 18h-5l-1 5-1 2-3-1 4-7 1-10 1-7 4-6z" fill="#647546"/>
<path transform="translate(799,1060)" d="m0 0 1 2 1 4 4 1 19 1-2-5-1-3 6 2 3 5 4 2 4 5-12-3-2-1h-14v2l-6 3-3 1-1-1-2-9-2-4z" fill="#647447"/>
<path transform="translate(251,794)" d="m0 0 5 2 4-1h5l4 4 1 7-5 2-7-1-2-1-3-7-3 1-2-2 1-3z" fill="#657448"/>
<path transform="translate(1141,1102)" d="m0 0 3 1h29l-3 2-18 2 3 6h-8l-8-4-4-1 5-5z" fill="#BAC2AA"/>
<path transform="translate(806,1020)" d="m0 0 2 4 1 3 7 1 2-1-1 3-5 1-2 10-2 2 2-10-11 2-2 7 3 1-2 1-6-5 2-7 3-3h6l2-3z" fill="#909E77"/>
<path transform="translate(279,752)" d="m0 0 8 4 12 11v2h-2l-1 4-10-4-7-14z" fill="#425527"/>
<path transform="translate(777,864)" d="m0 0v3l-4 8 1 3 5-2h4v-2l7-5 3 1-2 3-6 3-6 4-14 3-2-5-1-8 3 1 4 1v-6h2l2 3z" fill="#637345"/>
<path transform="translate(898,1086)" d="m0 0 2 4 3 12v8l5 9-3 2 1 3 2 1-2 3-4-1v-3h-2l-2-7-2-3v-6l3 1 1-6-2-12z" fill="#5C6E38"/>
<path transform="translate(350,826)" d="m0 0 4 1 17 9 10 6 2 1-1-6 2 3v6l-4-1-8-5-7-1-1 2h2l2 5h-3l-12-16z" fill="#6A7A4E"/>
<path transform="translate(1129,1122)" d="m0 0 10 1 4 1v2l7 2 10 5v2l-10-1-6-1v-2l-7-1-9-4-1-3z" fill="#647447"/>
<path transform="translate(388,840)" d="m0 0 2 4 4 6 4 5 1 4-5 2h-7l-10-6-3-4 15 5h2l-1-5-2-2v-3l-4 2-5-1-1-3 6 2 1-4v3l2-2z" fill="#647447"/>
<path transform="translate(639,732)" d="m0 0 4 1h4l3 1 1 6 3-2 1 5-8 1h-2-4l-5-1-2-5v-3h4z" fill="#647447"/>
<path transform="translate(764,1114)" d="m0 0 1 2-5 11-7 18-5 5-2 3h-2l-2 4-10 6-5 2h-8l4-4 12-2 5-4h2l2-4 4-7 2-1 3-9 8-15z" fill="#647447"/>
<path transform="translate(303,935)" d="m0 0h8l2 6-2 2-3 2-16 2-9-1v-1l10-1 2-4h4l1-3-3-1z" fill="#68784C"/>
<path transform="translate(835,1035)" d="m0 0h6l1 2-7 2-3 2-1 8 8 6 3 3-10-2-9-1 1 4 3 2-6-1-1-4 3-3 3-9 3-2 1-3-2-1z" fill="#9AA683"/>
<path transform="translate(823,1025)" d="m0 0h2l2 17-3 11-4-5 2-1v-10l-3-4h-4l-6 13-2-1 3-7 2-7 6-3z" fill="#526631"/>
<path transform="translate(128,812)" d="m0 0 6 2 4 4 4 11-3 1-5 1-11-7-4-4 5 1v2l6 1 1-3 1 1 1-4-3-1z" fill="#68784B"/>
<path transform="translate(586,416)" d="m0 0 2 4 3 9 2 2v7l1 3 7 6 1 5h-4l-5-3v-2l-2-1v-4l-4-7-2-4v-9z" fill="#5B6E35"/>
<path transform="translate(856,1124)" d="m0 0h2l4 8 6 8 2 5 3 4-1 2h-6l-6-9-4-11z" fill="#667649"/>
<path transform="translate(977,735)" d="m0 0h15l26 1-2 2h-10l-1 3-3-1-5 3h-2l-1 2-6-1-3-3 1-4-9-1z" fill="#697A47"/>
<path transform="translate(713,960)" d="m0 0h1l2 13 1 7-2-4h-3l-1 14-2 16h-1l-2-7-2-2h2l1-11 5-25z" fill="#ABB498"/>
<path transform="translate(707,920)" d="m0 0 3 1v34l-1 12h-1v-16h-2l-1 5h-1v-13l2-9z" fill="#647447"/>
<path transform="translate(834,761)" d="m0 0h1l-1 12-10 25-3 9h-1l1-10 1-11h2l1-4 6-15z" fill="#86946B"/>
<path transform="translate(879,1060)" d="m0 0 4 1 9 4 1 6v8l-4 1v-2l-2-1 1-2h-2l-1-4-4-1-3-9z" fill="#5A6B40"/>
<path transform="translate(801,789)" d="m0 0h1l-1 9-5 15-3 11-1 13v9l-7 8-4 8-3 2 2-5 3-7h2l1-4 3-1 2-6h-2v-11l1-10 7-18z" fill="#647447"/>
<path transform="translate(978,1214)" d="m0 0 9 1v1l-10 1-3 7-4 7 3 2-6 1 1 4 11-2-1 2-4 1h-12l-2-2 1-3 2 1 2-6 8-13z" fill="#AAB497"/>
<path transform="translate(909,1130)" d="m0 0 9 2 2 2 2 9 1 2-4 1-12-6-1-6z" fill="#5A6D35"/>
<path transform="translate(665 1e3)" d="m0 0 4 2 6 5 2 1 1-7 2 4-1 4 4 5v2l3 1-2 1h-3l-2 3v-3h-2v28h-1l-1-20v-12l-4-6-6-4-1-2z" fill="#919E7A"/>
<path transform="translate(908,1220)" d="m0 0 6 5 3 9h2l2 5 4 3v2l-3 1-10-5-1-6h-2z" fill="#4D622D"/>
<path transform="translate(875,978)" d="m0 0 5 2 5 5 9 8 2 5-7-1-6-3-6-9-2-4z" fill="#566937"/>
<path transform="translate(783,992)" d="m0 0h5l-4 4-5 2-17 3-6 2h-8l1-3 10-3 6-2z" fill="#87966C"/>
<path transform="translate(620,946)" d="m0 0 2 4 2 6v8h2l3 6h-2l2 6h-2l-1 3-3 1-3-9z" fill="#62743F"/>
<path transform="translate(118,808)" d="m0 0 9 2 3 5v2h4l-1 6-2-1-1 2-6-1-1-2-7-2-9-5 3-1 6 3 5 1 2-2 2 2-5-5-2-1z" fill="#5C6E39"/>
<path transform="translate(662,940)" d="m0 0 2 1v12l-1 14-6 2-1-1v-9l5-18z" fill="#506235"/>
<path transform="translate(973,1201)" d="m0 0h2l-3 10-7 10-5 8h-2l2-12 8-12 5-2z" fill="#647447"/>
<path transform="translate(805,1010)" d="m0 0 2 1-3 3-2 6-3 1-4 6-3 3h-2l-2 5h-2l1-5 5-10 1-5z" fill="#3F5223"/>
<path transform="translate(759,1048)" d="m0 0 3 1-6 4h-3l-1 4-5 7-3 15 2 8h-3l-4 1 1-8 5-19 1-4 6-5z" fill="#647447"/>
<path transform="translate(730,936)" d="m0 0 4 1 5 2 3 1-1 4 4 1-7 4-7 1 1-3h-2l-1-6h-3l-1-3 4-1z" fill="#5A6D35"/>
<path transform="translate(866,914)" d="m0 0 6 2-1 2-9 3-6 4-4 4-4 1v-6l6-5 1-3z" fill="#475A2C"/>
<path transform="translate(777,895)" d="m0 0 5 2 4 1-2 5-2 8-2-4-3-1h-6v2l-5 3h-3v-3l-3-1 1-7-1-2h3v3h2v7l10-6 3-1z" fill="#5B6E37"/>
<path transform="translate(343,940)" d="m0 0h16v1h-8l2 4 10 3 1 2 8 3v2l-9-3-14-5-15-3 3-3z" fill="#69784C"/>
<path transform="translate(730,893)" d="m0 0 2 3v10l-3 1-1 2h-2v-2h-2l-2-2-5-2 1-4 5-1 2 1 2-4z" fill="#5A6D34"/>
<path transform="translate(631,827)" d="m0 0 5 1 6 5v8l-3 4-3-1-3-5-2-5-1-1v-5z" fill="#4F642E"/>
<path transform="translate(814,965)" d="m0 0h5l1 4-2 5-7 7h-7l6-13z" fill="#4E632F"/>
<path transform="translate(233,918)" d="m0 0 10 1 28 1v1l-13 1v2l3 3-12-1-14-4z" fill="#919F79"/>
<path transform="translate(687,685)" d="m0 0 2 1 1 6-3 9-3 5-4-2-1-4 1-5h1l3-9z" fill="#647447"/>
<path transform="translate(694,493)" d="m0 0h3v2h5l-4 3 1 9 1 10v13h-1l-1-10-4-9-2-7v-8z" fill="#A8B294"/>
<path transform="translate(368,944)" d="m0 0 7 2 4 2v2l4 1v2l5 2 3 2-1 2-8 1-10-4 1-3h4v-2h-2v-2h-2v-2l-5-1z" fill="#68774B"/>
<path transform="translate(869,879)" d="m0 0h2l-2 5-9 10-5 5v-2l-9 6-5 1 5-5 8-7 10-9z" fill="#8C9A73"/>
<path transform="translate(1068,681)" d="m0 0h6l-2 4-9 6h-2v-2l-10 4-8 3-9 3-1-2 15-6z" fill="#88966D"/>
<path transform="translate(575,1032)" d="m0 0 3 1 2 3 3 4 6 9-1 2-3-3-4-1v-2h-6v9l-2-2-1-9z" fill="#647447"/>
<path transform="translate(271,920)" d="m0 0 1 3 8-1 1 3-8 3h-9l-6-3-2-3 2-1z" fill="#67774A"/>
<path transform="translate(889,844)" d="m0 0 2 1-7 7-6 8-3 1-2 4h-2l-1 3-7 3-2-3 2-4h2l2-4 3-2-1 5 6-5 6-7z" fill="#75845A"/>
<path transform="translate(575,1044)" d="m0 0 6 1v2l5 1v2l3 1 3 4v13l3 8-1 2-3-5v-2h-2l-1-5 1-2-2-9-3-3-7-3-3 1v-5z" fill="#596C33"/>
<path transform="translate(810,337)" d="m0 0 1 3-1 4-2 7-2 4-4 10-1 3-2 1-2 4-4-2h3v-6-3h5l-2-5v-3l4-1 1-4v-3l3-3h2l-1-3z" fill="#5A6D34"/>
<path transform="translate(889,1129)" d="m0 0 10 5 1 6h-2v2l-4 3h-2l-3-5-5-3v-2h6z" fill="#556835"/>
<path transform="translate(806,438)" d="m0 0h5l5 1 2 6-5-1 1 4-7 2-1-1-3 3v-4l-2-1h2v-2l1-1-1-2h2z" fill="#586B33"/>
<path transform="translate(627,293)" d="m0 0 5 1 7 8 2 9h-4l-4-1z" fill="#45582A"/>
<path transform="translate(559,766)" d="m0 0 4 1 1 7 5 2 1 6 1 4-4 1-3-1-1 2-2-4z" fill="#415426"/>
<path transform="translate(677,1020)" d="m0 0h2l1 4 1 22v12l-4-1z" fill="#98A581"/>
<path transform="translate(684,1096)" d="m0 0 2 2 3 15 1 9-2 5-3-2-2-16v-12z" fill="#5A6D34"/>
<path transform="translate(785 1e3)" d="m0 0 2 4 9 3 9-5h6v3l-5 4-3 3 1-4 1-2-9 4-4-1-2-1 2 5-3 6-1-3 1-4-4-6-4-1z" fill="#556836"/>
<path transform="translate(929,845)" d="m0 0h2v16l-2 5h-2v2l-4 1v-8z" fill="#667649"/>
<path transform="translate(934,813)" d="m0 0 3 1-3 3h-2l-1 5 4 2-10 2h-5l-3-5h4v-2z" fill="#69794D"/>
<path transform="translate(968,615)" d="m0 0 2 3-5 10-8 11h-2v-7l9-13z" fill="#6B7B4E"/>
<path transform="translate(887,1212)" d="m0 0 2 2 2 7 1 3h2l1-4h1l2 9 3 5 4-1 1 3 4 3v2l-5-1-8-6-7-9-3-8z" fill="#8E9C75"/>
<path transform="translate(583,1149)" d="m0 0 2 3 1 5 4 2v5l-3 2-4-2-3-4-5-1-3-5 8 1v2h2l-1-4z" fill="#667649"/>
<path transform="translate(767,927)" d="m0 0v3l-3 4-8 3-7 4-1-1v-8l2-4h2l3 3 8-2z" fill="#5C6E37"/>
<path transform="translate(1043,736)" d="m0 0h4l-2 4-11 5-5 1v-5l-1-3h-5v-1z" fill="#5B6E37"/>
<path transform="translate(695,1218)" d="m0 0h3l1 6v11h-5l-3-4v-7l1-3h2z" fill="#516532"/>
<path transform="translate(1031,1142)" d="m0 0 2 1-2 4h-3l1 4 20 10-4 1-6-2-8-4-7-3v-2h-3l2-4z" fill="#B0B99E"/>
<path transform="translate(287,772)" d="m0 0 6 1 3 4v2h2l1 4h2l1 2 4 1-1-6 3 4v7l-2 1-8-7-3-3-5-3-3-5z" fill="#647547"/>
<path transform="translate(372,903)" d="m0 0h8l5 2-2 1v6l-3 3-4-1-3-3-2-7z" fill="#647447"/>
<path transform="translate(600,890)" d="m0 0 7 6 3 4 2 11-1 3-3-1-7-12h3l-1-4-2-1z" fill="#546835"/>
<path transform="translate(635,490)" d="m0 0 5 4-1 5h-3l-2 5-2 4-3-4-4-10 4 2h2l2-1v-4z" fill="#A6B192"/>
<path transform="translate(882,1146)" d="m0 0 10 2 2-1 2 1 1 6-2 2h-3v4l-3-1-5-7z" fill="#68784C"/>
<path transform="translate(906,1216)" d="m0 0 4 1 5 5-1 2h2v2h2l2 7 3 4-1 2-3-3v-2h-2l-3-5v-4l-3-1-2-3 1 15-2 2-3-2v-3h2v-7z" fill="#607140"/>
<path transform="translate(837,1010)" d="m0 0 1 2-2 7h4v2l-6 4-3 6-4 2-1-7 3-5 5-4-1-4z" fill="#9EAA88"/>
<path transform="translate(888,875)" d="m0 0 4 4 1 4 6 1 1 1v5l-1-3-5 2-2-1-1 10-2-4-2-12v-6z" fill="#929F79"/>
<path transform="translate(903,1127)" d="m0 0 2 2v9h2v2l5 1 7 4-3 1-5-2-10-1 1 6-3-2-1-4 1-8 4 1z" fill="#919F79"/>
<path transform="translate(699,568)" d="m0 0h1l1 19 2 6 3-5 2-4v8l-4 10h-4l-1-2z" fill="#AAB497"/>
<path transform="translate(746,925)" d="m0 0 4 2-1 8v7l-2 2h-6l-1-3 3-8 2-7z" fill="#516531"/>
<path transform="translate(984,744)" d="m0 0 7 1 1 6-11 2-7 2-5-7 1-3 5 5v3l4-2v-2h2l1-4z" fill="#5A6D34"/>
<path transform="translate(136,870)" d="m0 0h28v1l-19 2 1 4-9-1-8-2 1-2z" fill="#647546"/>
<path transform="translate(862,994)" d="m0 0h3l-1 7-7 9-5 1-6 5-2-1 7-7 9-11z" fill="#93A07B"/>
<path transform="translate(610,901)" d="m0 0 5 5 2 7 1 5h2l-1 3-4 1-2 2-4-10h2z" fill="#667749"/>
<path transform="translate(918,893)" d="m0 0 5 1 3 6-1 12-2 6-3 2-3-3v-3l4 1v-10l-2-9z" fill="#ABB498"/>
<path transform="translate(786,742)" d="m0 0 1 2-6 17-1 4-6 11-2 4-1 8-2-4 1-8h2l1-4 3-7 3-6 2-7 3-8z" fill="#657548"/>
<path transform="translate(633,310)" d="m0 0 9 1 2 6v9l-4 1-1-3h2l-1-2h-2v-2h-2z" fill="#546836"/>
<path transform="translate(896,1009)" d="m0 0h2l6 13v9l-1 2h-3l-1-2-2-13z" fill="#77865C"/>
<path transform="translate(986,770)" d="m0 0h2l-2 5-8 8-4 2-5-1-6 3h-6l3-2 21-10z" fill="#8F9D76"/>
<path transform="translate(896,1181)" d="m0 0h2l6 12 1 6-1 3 4 2-1 2-4-3-6-1v-2h2l-7-14 5 5 4 3z" fill="#929F79"/>
<path transform="translate(698,1208)" d="m0 0 2 1v24h-1l-1-15-3 1-1 2h-2l-1 3-1-5 1-4v-6l1 3 6-1z" fill="#697A49"/>
<path transform="translate(1018,1152)" d="m0 0 1 2-1 3 2 2 6 2 1 2-8-1-5 3-2 6 10 1v1h-10l-2-1v-10h2l4-9z" fill="#B7BFA6"/>
<path transform="translate(956,1147)" d="m0 0 2 1 2 8v4h2l-1 5-5 10v-12l-1-4v-11z" fill="#98A481"/>
<path transform="translate(805,874)" d="m0 0h5l2 3v3l-5 3-3 2h-7l2-1 1-6z" fill="#627244"/>
<path transform="translate(546,937)" d="m0 0 4 4 12 23 2 5-4-1-11-21-3-7z" fill="#8B9972"/>
<path transform="translate(878,651)" d="m0 0h1v8l-4 6h-2l-2 5-5 2v-8l2-4 6-1 3-1z" fill="#526632"/>
<path transform="translate(1015,1132)" d="m0 0 1 3-2 5-3 6-3 12-7 21h-1l1-9 5-17 6-16z" fill="#AFB89D"/>
<path transform="translate(635,559)" d="m0 0 2 4 1 8v3h2l1 7 2 1v3l-8 2-8-6v-2l-3-1 2-1 11 7-2-19z" fill="#6C7C4F"/>
<path transform="translate(1073,1140)" d="m0 0 11 1 10 3-4 2v4l-4-1-13-1-3-2h7l4-1-8-4z" fill="#B4BCA2"/>
<path transform="translate(181,868)" d="m0 0 7 1 7 3 2 1-1 4-5 1-2-4-4-2-9-1-12 1 1-2z" fill="#657548"/>
<path transform="translate(1007,1184)" d="m0 0 13 1 7 3-5 4h-2v-2l-13-1-2-4z" fill="#A9B396"/>
<path transform="translate(874,1172)" d="m0 0 9 6 5 3-2 3 2 5-1 3-10-11z" fill="#93A07A"/>
<path transform="translate(1033,1166)" d="m0 0 7 1 14 3v2l-10 4h-8l-6-1v-1h13v-3l-6-2z" fill="#B4BCA3"/>
<path transform="translate(826,558)" d="m0 0h1l-1 7 3-1 1 2h-2v6h-2v5l-2 2 1 4 3 1-6 2-4-1v-4l4-4 1-4h2v-6l-1-4z" fill="#5A6D34"/>
<path transform="translate(1105,1133)" d="m0 0 22 3 7 1v2l-9 2-2 6-3 1 1-7 3-2-9-2-15-2v-1z" fill="#B0B99E"/>
<path transform="translate(285,825)" d="m0 0h2l1 4-1 2v8 2l1 5-5 1-2-5 1-4 1-11z" fill="#87966C"/>
<path transform="translate(839,744)" d="m0 0h2l-3 13-2 4h-2l-3 9-3 6-1-3 5-11-2-1 5-10z" fill="#576A38"/>
<path transform="translate(1110,1116)" d="m0 0 2 1 10 1h16l2-1 12 3v1l-8 2-7-2h-27l-2-4z" fill="#FDFDFD"/>
<path transform="translate(1e3 913)" d="m0 0 1 4-6 9-5 6-4 1 2-7 7-7 3-5z" fill="#485A2D"/>
<path transform="translate(915,670)" d="m0 0 3 3 2 6-5 3-7-1v-4h2l1-5z" fill="#647447"/>
<path transform="translate(813,313)" d="m0 0 2 2v7l-3 7-4 8-3 2 2-9 5-15z" fill="#89986F"/>
<path transform="translate(348,871)" d="m0 0 7 1 19 9 2 3-1 1h-10l-6-2v-1h7l-8-6-10-4z" fill="#ACB699"/>
<path transform="translate(993,1197)" d="m0 0 4 3v-3h10l-2 2-1 5h-13l1-6z" fill="#FDFDFD"/>
<path transform="translate(706,951)" d="m0 0h2l1 19-2 3-4-1 1-16z" fill="#516530"/>
<path transform="translate(858,745)" d="m0 0 4 5 1 8h-2l-1 4-5 2-1-4 3-8z" fill="#A8B294"/>
<path transform="translate(913,1244)" d="m0 0 5 5 7 3 10 4 4 2v1h-7l-10-3-9-10z" fill="#8A9870"/>
<path transform="translate(764,1114)" d="m0 0 1 2-5 11-7 18h-3l2-9 9-17z" fill="#5F713E"/>
<path transform="translate(893,930)" d="m0 0 4 1 1 2 7 2 1 5-5 3-5-5z" fill="#596C34"/>
<path transform="translate(812,841)" d="m0 0 1 2-5 10h-2l-2 7-5 7-3 2-3-1h2l2-4 5-5v-6l5-5 2-6z" fill="#67774A"/>
<path transform="translate(832,1028)" d="m0 0 5 5v2l-8 3 1 4-4 2-1-13 2-1v3z" fill="#647447"/>
<path transform="translate(901,834)" d="m0 0 4 1v2l-9 4h-4v-2l-12 6-3-1 16-8z" fill="#8F9D76"/>
<path transform="translate(709,1082)" d="m0 0h1v22l-4 25-2 4-1-4 2-9 1-15 2-6z" fill="#95A27D"/>
<path transform="translate(878,848)" d="m0 0h3l1 3-11 12h-2l1-6 4-6z" fill="#4E632E"/>
<path transform="translate(887,1184)" d="m0 0 4 1 7 10v4h-5l-4-6-1-7z" fill="#506430"/>
<path transform="translate(560,594)" d="m0 0 4 1v5 3l-2 6-4-1-3-7 3-2z" fill="#506530"/>
<path transform="translate(818,448)" d="m0 0 4 1-11 15-2 2-1-4 4-7-1-5 1 2h2l1-2z" fill="#657645"/>
<path transform="translate(908,1190)" d="m0 0 7 1 2 2 2 8v3l-4-2-7-9z" fill="#5A6D35"/>
<path transform="translate(1e3 1149)" d="m0 0 2 1-12 23-2 2-3-1 2-5 7-11z" fill="#B0B99E"/>
<path transform="translate(686,744)" d="m0 0 9 5 3 3 1 5-5 1-6-7-2-3z" fill="#647447"/>
<path transform="translate(89,804)" d="m0 0 16 2 4 3-2 2v2l-9-3-8-4z" fill="#5F713C"/>
<path transform="translate(902,695)" d="m0 0h4v2h2l5 6-1 4-8-3-2-3z" fill="#A8B294"/>
<path transform="translate(1151,1116)" d="m0 0h26l1 2-4 1h-20z" fill="#6E7E52"/>
<path transform="translate(850,814)" d="m0 0 3 1 2 3-1 10-5-3-1-5-1-3z" fill="#647447"/>
<path transform="translate(852,785)" d="m0 0 2 1-2 5 6-2-4 5-6 4-4-1 1-4z" fill="#B1BA9F"/>
<path transform="translate(723,720)" d="m0 0 4 1 2 2v7l-7 1-1-2v-7z" fill="#4C612D"/>
<path transform="translate(969,1207)" d="m0 0h2l-2 9-4 5-2 4h-3l1-6 6-10z" fill="#576B34"/>
<path transform="translate(1063,1102)" d="m0 0 1 2 4-1-4 7-7 7-5 7-1-2 2-5 6-7z" fill="#FDFDFD"/>
<path transform="translate(897,1217)" d="m0 0 3 1 1 12 4 1-2 4-3-1-3-5-2-10h2z" fill="#647447"/>
<path transform="translate(745,1186)" d="m0 0 3 1v5h-2l-1 5-7-1 1-5 4-4z" fill="#5F713E"/>
<path transform="translate(818,910)" d="m0 0h1v10l5 2 4 2v2l-10 3-1-15z" fill="#69794C"/>
<path transform="translate(183,903)" d="m0 0 2 1-8 5-4 2 9 1v1h-15l-5-1v-2l15-4z" fill="#8E9C74"/>
<path transform="translate(732,910)" d="m0 0 3 1-1 9-1 2-6 1-3-2 6-8h2z" fill="#586B33"/>
<path transform="translate(992,678)" d="m0 0h8l1 3-11 7-3 1v-5h2l1-4h2z" fill="#A9B395"/>
<path transform="translate(679,1014)" d="m0 0 4 2v2l3 1-2 1h-3l-2 3v-3h-2v28h-1l-1-20 1-12 2 2z" fill="#B8C0A8"/>
<path transform="translate(1036,1208)" d="m0 0h5l-1 3-7 3h-10v-3z" fill="#738257"/>
<path transform="translate(991,1189)" d="m0 0 2 1-1 6-7 9h-3l1-5 7-10z" fill="#566936"/>
<path transform="translate(777,956)" d="m0 0 2 1-3 4-6 5-4 2-7 5-3-1 5-5 9-6z" fill="#627343"/>
<path transform="translate(988,1173)" d="m0 0 2 1-1 5-2 5-6 5-1-4 6-11z" fill="#8B9971"/>
<path transform="translate(869,1135)" d="m0 0 6 1-2 2 7 9v3l-5-2-6-7z" fill="#B7BFA7"/>
<path transform="translate(1142,1128)" d="m0 0h8l10 5v2l-10-1-6-1z" fill="#60723F"/>
<path transform="translate(865,913)" d="m0 0h6l6 3h3l3-3-1 4-7 3-3 3-1-3-5-1v-1l5-1-3-2-10 1 3-2z" fill="#94A17D"/>
<path transform="translate(543,1127)" d="m0 0 13 4 5 2-4 1-3 3-11-7z" fill="#8D9B74"/>
<path transform="translate(934,1247)" d="m0 0 8 1-1 3 3 1v6l-2 1-5-4-1-6h-2z" fill="#4D612D"/>
<path transform="translate(679,1071)" d="m0 0 4 2 1 7v11l-3-3-2-10z" fill="#586B34"/>
<path transform="translate(443,1018)" d="m0 0 8 2 7 3v2l4 2 5 3v2l-6-2-18-11z" fill="#6E7D51"/>
<path transform="translate(542,736)" d="m0 0 5 2 5 7v6l-5-3-5-10z" fill="#495C2D"/>
<path transform="translate(1135,1121)" d="m0 0 9 1 7 4 9 6-2 1-19-9-4-1z" fill="#8F9D76"/>
<path transform="translate(1042,1127)" d="m0 0 2 1-6 9 1 2-4 3h-2v-10l5-1zm-7 12m6-4m-2 1 2 1-2 1z" fill="#B4BCA3"/>
<path transform="translate(490,1060)" d="m0 0 9 1 8 2v1l-7 1 1 1 2 3-6-2-7-4z" fill="#718055"/>
<path transform="translate(1e3 989)" d="m0 0h2l-1 10-5 9h-2l2-10z" fill="#6B7B50"/>
<path transform="translate(122,869)" d="m0 0h26v1l-12 1-9 3-6-2z" fill="#909E78"/>
<path transform="translate(690,1212)" d="m0 0 2 3-1 8-1 4v-2h-3l-2-3v-7z" fill="#8F9C75"/>
<path transform="translate(930,1196)" d="m0 0h2l2 9 1 11-2 2-3-9z" fill="#647447"/>
<path transform="translate(297,848)" d="m0 0 6 1 1 4-3 3-6-1-2-2 2-4z" fill="#87966C"/>
<path transform="translate(762,1018)" d="m0 0h3l1 3 2 2-4 2h-5l-6 3 2-4 5-5z" fill="#647447"/>
<path transform="translate(889,1207)" d="m0 0 5 5-1 7 2 2-1 3h-2l-3-5-1-9z" fill="#617144"/>
<path transform="translate(529,966)" d="m0 0 2 4 3 7 1 6h-5l-2-5z" fill="#A9B395"/>
<path transform="translate(596,888)" d="m0 0 1 2h3l1 6 4 2-1 4-4-2-6-7z" fill="#435528"/>
<path transform="translate(967,976)" d="m0 0h2v7l-3 8h-3l1-12z" fill="#728253"/>
<path transform="translate(829,941)" d="m0 0 7 1 1 4-2 3h-6l-2-6z" fill="#576A33"/>
<path transform="translate(928,838)" d="m0 0 2 1 1 6h-2l-1 5-3 8-3 1 2-9z" fill="#919F79"/>
<path transform="translate(381,812)" d="m0 0h2l1 3v10l-4-1v5h-1v-13z" fill="#728258"/>
<path transform="translate(807,610)" d="m0 0h2l-2 7-4 5-2-1v-2l-4 3-2-1 7-7z" fill="#6C7C4F"/>
<path transform="translate(748,286)" d="m0 0 4 1 1 1 1 10h-4l-3-7z" fill="#647447"/>
<path transform="translate(670,1132)" d="m0 0 6 2 4 6v6h-1l-2-6-5-5-3 3-1 5h-1l-1-10z" fill="#AAB497"/>
<path transform="translate(633,1132)" d="m0 0 3 3 7 12 2 4v4h-2l-6-12-4-7z" fill="#A9B395"/>
<path transform="translate(896,1053)" d="m0 0h2l4 9 1 4-1-2h-2v9l-2-1-2-7z" fill="#6D7D50"/>
<path transform="translate(760,898)" d="m0 0h3v3h2v7l7-4 2 1-3 1v2l-5 3h-3v-3l-3-1 1-7z" fill="#5A6D34"/>
<path transform="translate(976,698)" d="m0 0 2 1-2 4h10v1l-10 1-5 3h-4l2-5 6-4z" fill="#ABB598"/>
<path transform="translate(859,1133)" d="m0 0 4 3 3 7 1 6-5-3-3-7z" fill="#576A38"/>
<path transform="translate(583,1072)" d="m0 0 4 1 5 4 1 2h4l1 4 2 1h-4l-6-4-5-4z" fill="#60723D"/>
<path transform="translate(894,1045)" d="m0 0h2l4 10h-2v-2h-2l1 12 1 5h-4l-1-5 1-5z" fill="#A2AD8D"/>
<path transform="translate(853,1009)" d="m0 0h3l-2 5-5 5-5-1-4 2 3-4 5-3z" fill="#6A7A4E"/>
<path transform="translate(1e3 1221)" d="m0 0h3l-2 7-8 1-4 3 4-10 2 2z" fill="#A6B092"/>
<path transform="translate(343,940)" d="m0 0h16v1l-14 1v3l2 1-9-1-4-2 3-2z" fill="#95A27D"/>
<path transform="translate(288,936)" d="m0 0h9l3 1-1 5-4-1-2 4h-5l2-4 3-3-5-1z" fill="#5D7039"/>
<path transform="translate(1070,611)" d="m0 0 2 1-8 10-6-3 4-4z" fill="#6C7C50"/>
<path transform="translate(886,987)" d="m0 0 8 6 2 5-7-1-6-3 4-1 1-2-2-1z" fill="#647547"/>
<path transform="translate(659,346)" d="m0 0 3 1 3 5v4l-7-1-2-4 2-1z" fill="#667648"/>
<path transform="translate(1067,1089)" d="m0 0h5l1 2-5 2-4 9-1-4-4 1 2-5z" fill="#A5B091"/>
<path transform="translate(785 1e3)" d="m0 0 2 4 7 3-4 1 2 5-3 6-1-3 1-4-4-6-4-1z" fill="#637345"/>
<path transform="translate(916,794)" d="m0 0 3 1-8 4-1 2-10 2-3-2 11-4z" fill="#A9B396"/>
<path transform="translate(968,615)" d="m0 0 2 3-4 8-5 1 2-6 3-5z" fill="#5A6C3F"/>
<path transform="translate(863,1102)" d="m0 0 11 1v1l-7 1 5 4-5-1-6-2v2l-5-1v-3l7-1z" fill="#CED3C3"/>
<path transform="translate(423,1008)" d="m0 0h7l3 2 6 2 1 4h3v2l-5-2-15-7z" fill="#627443"/>
<path transform="translate(265,940)" d="m0 0h15v2l-2 1-14 1-4-2z" fill="#495C2E"/>
<path transform="translate(936,814)" d="m0 0 2 2-1 4h7l-2 2-3 1h-9l2-6 4-1z" fill="#61733E"/>
<path transform="translate(729,619)" d="m0 0 5 2-1 5-5 2v-2l-3-1-1-3z" fill="#51652F"/>
<path transform="translate(856,1124)" d="m0 0h2l4 8 5 6-1 2-6-6-2 2-2-5z" fill="#94A17C"/>
<path transform="translate(568,776)" d="m0 0 2 4 1 6-4 1-3-1-1 2-2-4 1-4 1 3 3-3z" fill="#50652F"/>
<path transform="translate(642,314)" d="m0 0 2 3v9l-4 1-1-3h2l-1-2h-2v-2l-2-1 2-2 3-1z" fill="#5C6E37"/>
<path transform="translate(685,1175)" d="m0 0h1l2 16 2 12-2-1-4-16v-10z" fill="#647447"/>
<path transform="translate(1026,1120)" d="m0 0 2 1-7 12-5-1 2-4z" fill="#B0B99E"/>
<path transform="translate(789,1089)" d="m0 0h2l-1 3-5 2-2 5-2 1-1-2-6 6-2-1 9-9 5-3z" fill="#67784A"/>
<path transform="translate(438,941)" d="m0 0h7l4 2v2l-9 2-3-4z" fill="#617242"/>
<path transform="translate(118,808)" d="m0 0 9 2 3 5-1 2-4-1-5-4-2-1z" fill="#60723E"/>
<path transform="translate(801,789)" d="m0 0h1l-1 9-6 18h-2l1-6z" fill="#617242"/>
<path transform="translate(790,458)" d="m0 0 5 2 4 2 1 4-3 3v-2l-4-1-1-3-2-1z" fill="#5A6D34"/>
<path transform="translate(1062,1161)" d="m0 0h9l-1 2-11 4v-2l-6-1v-1z" fill="#D0D5C6"/>
<path transform="translate(888,1086)" d="m0 0h1l3 18-4-2-2-2v-5h2z" fill="#8B9971"/>
<path transform="translate(827,1063)" d="m0 0 3 4 4 2 4 5-12-3-2-2 2-2z" fill="#647447"/>
<path transform="translate(386,969)" d="m0 0 17 5v1h-6-2l-1 2-8-5z" fill="#B7C0A7"/>
<path transform="translate(988,925)" d="m0 0 2 1-6 11 3 1-4 3-2-1-1-4 6-7z" fill="#67774A"/>
<path transform="translate(774,1123)" d="m0 0h1l1 10-1 3-1 13-4-5 1-6h2l1-8z" fill="#5A6D34"/>
<path transform="translate(367,835)" d="m0 0 5 2 11 6-1-6 2 3v6l-4-1-9-5z" fill="#93A07B"/>
<path transform="translate(808,690)" d="m0 0 2 1-2 10-2 5-3 1 1-6 3-10z" fill="#909D77"/>
<path transform="translate(958,1156)" d="m0 0h2v4h2l-1 5-5 10v-8l1-1z" fill="#B8C0A8"/>
<path transform="translate(532,1078)" d="m0 0 7 4 1 4-3-1-10-1-1-2h5z" fill="#5A6D34"/>
<path transform="translate(881,951)" d="m0 0 3 2 4 9v2h-2l-1-2-2 4-2-7z" fill="#A7B193"/>
<path transform="translate(189,770)" d="m0 0 5 1 10 6-1 2-6-1-8-7z" fill="#4C5F30"/>
<path transform="translate(911,1220)" d="m0 0 4 2-1 2h2v2h2l2 7 3 4-1 2-3-3v-2h-2l-3-5z" fill="#647447"/>
<path transform="translate(991,1198)" d="m0 0 1 2-1 4h14l-2 2-5 1h-9l-1-4z" fill="#A8B294"/>
<path transform="translate(786,1156)" d="m0 0h4v2l-11 5-7 1v-2l6-3 7-2z" fill="#8C9A72"/>
<path transform="translate(471,1025)" d="m0 0 5 1v2h3l4 4v3h-7l-1-2 2-1-4-4v-2z" fill="#5A6D34"/>
<path transform="translate(744,906)" d="m0 0 2 2-6 7-3 4-2-6v-2l4-1z" fill="#94A17C"/>
<path transform="translate(1054,688)" d="m0 0 2 1-3 3-6 3-13 4-1-2 15-6z" fill="#8C9A73"/>
<path transform="translate(963,1189)" d="m0 0h1l1 10 3 2-3 3-1 2h-2l-1-7z" fill="#A8B294"/>
<path transform="translate(686,1098)" d="m0 0h2l3 15 1 8-3-1-3-19z" fill="#647447"/>
<path transform="translate(901,1020)" d="m0 0 1 2h2v9l-1 2h-3v-11z" fill="#5F713F"/>
<path transform="translate(406,998)" d="m0 0h5v2l-5 2 2 2h-9v-3z" fill="#647547"/>
<path transform="translate(762,931)" d="m0 0 3 1-1 2-8 3-5 2-1-4 3-2 7-1z" fill="#6F7E53"/>
<path transform="translate(204,777)" d="m0 0 10 5-3 1h-2l2 3-5-2-6-4 1-2z" fill="#708054"/>
<path transform="translate(1059,689)" d="m0 0h2l-1 4-5 3-8-1 4-3z" fill="#68784C"/>
<path transform="translate(785,1146)" d="m0 0 4 1 1 3h2v2h-2l-1 5-5-5z" fill="#5A6D34"/>
<path transform="translate(1041,634)" d="m0 0 3 1 7-1-1 3h-4l-1 2-4 1-1 2-1-5z" fill="#5A6D34"/>
<path transform="translate(792,383)" d="m0 0h1l1 6-1 4 3 1-4 2-3-4 1-7h2z" fill="#5B6E36"/>
<path transform="translate(1043,1178)" d="m0 0 3 1-3 1zm-1 2m-5 0 5 1-2 3-3 1v2h-6l1-3h2l1-3z" fill="#69794D"/>
<path transform="translate(867,1122)" d="m0 0 6 2 9 7-3 4-7-8z" fill="#AAB497"/>
<path transform="translate(1077,1110)" d="m0 0 3 1-4 6-6 6-2-1 3-5z" fill="#D4D9CB"/>
<path transform="translate(898,900)" d="m0 0 2 4 2 3v6l1 2-5-1-3-3h4l-1-2z" fill="#637346"/>
<path transform="translate(790,869)" d="m0 0 3 1-2 3-6 3-6 4h-5l3-3 6-1v-2z" fill="#647447"/>
<path transform="translate(633,528)" d="m0 0h1l3 10 2 5h-3l-1 7h-1l-1-12z" fill="#79885D"/>
<path transform="translate(884,961)" d="m0 0 3 3 3 11h2l1 5-5-5-4-9z" fill="#647447"/>
<path transform="translate(922,708)" d="m0 0h1l-1 9-3 7h-1v-8l2-7z" fill="#AAB396"/>
<path transform="translate(875,1057)" d="m0 0h1l-1 12 1 3-4-1-2-4 1-4 4-1z" fill="#AEB79B"/>
<path transform="translate(871,974)" d="m0 0 9 2 5 7-10-4-4-4z" fill="#A4AF8F"/>
<path transform="translate(620,946)" d="m0 0 2 4 2 6v7l-2 1-2-9z" fill="#566A32"/>
<path transform="translate(821,301)" d="m0 0h3l-1 8-2 4-2-7-1 2-2-1z" fill="#758558"/>
<path transform="translate(914,1204)" d="m0 0h2l1 3 3 3-1 4h-3l-3-5z" fill="#5B6D36"/>
<path transform="translate(562,1138)" d="m0 0 6 1 3 4v2l-4 1-1-3-3-1z" fill="#3E5123"/>
<path transform="translate(1105,1133)" d="m0 0 17 2v2l-17-1-5-1v-1z" fill="#BBC3AC"/>
<path transform="translate(1113,1068)" d="m0 0 3 1-4 11-4-2z" fill="#647447"/>
<path transform="translate(825,1008)" d="m0 0 7 4-6 8-4 5h-2l2-4 4-4v-6z" fill="#A8B294"/>
<path transform="translate(676,850)" d="m0 0 3 4 5 11-1 4-4-2 1-4-4-10z" fill="#BFC7B1"/>
<path transform="translate(836,754)" d="m0 0h2l-1 5-1 2h-2l-3 9-3 6-1-3 6-13z" fill="#6B7B4F"/>
<path transform="translate(846,537)" d="m0 0 2 1-12 11-5 6-1-3 13-13z" fill="#5C6F3F"/>
<path transform="translate(797,355)" d="m0 0h3l1 7-7 2-3 2 2-4z" fill="#6C7B4F"/>
<path transform="translate(885,1122)" d="m0 0 3 1 7 8h-3l-3-2-1 3-3-7-2-2z" fill="#A2AD8E"/>
<path transform="translate(786,1024)" d="m0 0 2 1-7 11-4 4-3-1 5-5 4-5z" fill="#5F703F"/>
<path transform="translate(355,947)" d="m0 0 8 1 1 2 8 3v2l-9-3-8-3z" fill="#748358"/>
<path transform="translate(889,924)" d="m0 0h1v11l-6 2z" fill="#546731"/>
<path transform="translate(640,832)" d="m0 0 2 1v8l-3 4-3-1-3-5 1-4 2 6 5-1z" fill="#647445"/>
<path transform="translate(631,827)" d="m0 0 5 1 4 4h-6l-2 3-2-2v-5z" fill="#6A7A4D"/>
<path transform="translate(972,802)" d="m0 0h3v3l-4 2-12-1v-1z" fill="#808E67"/>
<path transform="translate(1043,736)" d="m0 0h4l-2 4-3 1-1-2-18-1v-1z" fill="#8F9C75"/>
<path transform="translate(806,705)" d="m0 0 1 2-1 2-2 1v5l-3 3h-2l3-11z" fill="#6C7B4E"/>
<path transform="translate(1051,1177)" d="m0 0 2 1-14 8-3-1 4-2 6-5z" fill="#8C9A72"/>
<path transform="translate(767,1166)" d="m0 0v3h-6l-1 3-4 1-2 2-2-3 5-3 9-2z" fill="#5B6E37"/>
<path transform="translate(623,970)" d="m0 0 4 1 2 5h-2l-1 3-3 1-1-9z" fill="#576B33"/>
<path transform="translate(837,945)" d="m0 0 2 1-4 8 3 1-6 1-1-3z" fill="#A1AC8C"/>
<path transform="translate(386,799)" d="m0 0 6 2 6 9-4-2-8-6z" fill="#76865C"/>
<path transform="translate(560,762)" d="m0 0 4 4 3 4 1 6-4-2-2-6-2-1z" fill="#5A6D3C"/>
<path transform="translate(842,737)" d="m0 0h2l-1 6h-11l5-4z" fill="#617344"/>
<path transform="translate(700,587)" d="m0 0 3 6 2-1-1 7-3 1-1-3z" fill="#FDFDFD"/>
<path transform="translate(835,1035)" d="m0 0h6l1 2-7 2-3 2-2 3v-5l-2-1z" fill="#98A481"/>
<path transform="translate(941,992)" d="m0 0 3 3-1 10-3-1-1-5z" fill="#8F9C75"/>
<path transform="translate(912,1133)" d="m0 0 5 1 1 6-3 1-4-4z" fill="#4C612D"/>
<path transform="translate(780,1097)" d="m0 0h1l-1 9-2 9h-1v-15z" fill="#556836"/>
<path transform="translate(814,1030)" d="m0 0 2 1-7 15-2-1 3-7 2-7z" fill="#546835"/>
<path transform="translate(860,948)" d="m0 0 6 2-3 5-3 1-1-1z" fill="#647447"/>
<path transform="translate(185,903)" d="m0 0h2l-2 4-9 5-4-1 5-3z" fill="#647447"/>
<path transform="translate(197,896)" d="m0 0 2 1-5 5-7 2-1-2z" fill="#77865C"/>
<path transform="translate(959,807)" d="m0 0m-5 1h5l-2 3h-4l-2 4-3-4 2-2z" fill="#3E5123"/>
<path transform="translate(697,718)" d="m0 0 6 1-4 6-5-2v-2h2z" fill="#667649"/>
<path transform="translate(624,577)" d="m0 0 5 2 8 5 2-3v5l-4 1-8-6v-2l-3-1z" fill="#8E9C75"/>
<path transform="translate(928,1112)" d="m0 0 4 1v9l-2 1-2-6z" fill="#5A6D35"/>
<path transform="translate(898,1086)" d="m0 0 2 4 3 12-1 4-2-3-2-12z" fill="#60713F"/>
<path transform="translate(857,890)" d="m0 0m-2 1 2 1-7 8-7 4-2-1 10-8z" fill="#A3AE8E"/>
<path transform="translate(350,826)" d="m0 0 4 1 8 4-3 2-3 1z" fill="#919F78"/>
<path transform="translate(910,1234)" d="m0 0 2 3v3l6 2 2 3-2 2v-2l-4-2-3-2v-2h-2z" fill="#5A6D34"/>
<path transform="translate(840,1066)" d="m0 0 6 4 5 3 4 1v2l-5-1-7-3v-2h-2z" fill="#B2BBA1"/>
<path transform="translate(689,1062)" d="m0 0h7l1 6-6-2z" fill="#596B39"/>
<path transform="translate(821,1060)" d="m0 0 6 2v5l-2 2h-6v-1h5l-2-5z" fill="#5D6F39"/>
<path transform="translate(963,999)" d="m0 0h3l-1 7-4 1-1-5z" fill="#5C6E39"/>
<path transform="translate(848,907)" d="m0 0 2 1-10 11-3 1 2-4 3-3h2l2-4z" fill="#A1AD8C"/>
<path transform="translate(896,902)" d="m0 0h2l1 9-6 1z" fill="#4D622D"/>
<path transform="translate(937,1217)" d="m0 0 6 9-3 4-2-3z" fill="#AAB497"/>
<path transform="translate(1084,1098)" d="m0 0 4 1-2 5-2 1v-3h-6l4-3z" fill="#CBD1C0"/>
<path transform="translate(436,1074)" d="m0 0 11 3v3l-4 1-7-5z" fill="#99A583"/>
<path transform="translate(504,1045)" d="m0 0h6l3 2v3l-6-1-3-2z" fill="#61733F"/>
<path transform="translate(794,1041)" d="m0 0 4 2v2h2v2l-7-1-6-2 4-1 3 1z" fill="#5B6D3B"/>
<path transform="translate(544,1031)" d="m0 0 10 1 1 2-4 4-3-1v-4z" fill="#B0B99E"/>
<path transform="translate(446,1015)" d="m0 0 4 2v2h5l2 2 1 2-4-1-11-4 3-1z" fill="#5A6D34"/>
<path transform="translate(665 1e3)" d="m0 0 4 2 4 4-1 4-5-5-3-1z" fill="#B8C0A8"/>
<path transform="translate(348,871)" d="m0 0 7 1 9 5v2l3 1-1 2-8-6-10-4z" fill="#D6DBCD"/>
<path transform="translate(89,804)" d="m0 0 16 2-4 2-4-1v2l-6-2z" fill="#818F66"/>
<path transform="translate(739,1191)" d="m0 0 1 2h2l1-2v2l3-1-1 5-7-1z" fill="#647447"/>
<path transform="translate(915,1124)" d="m0 0h5l4 5-4-1-1 4-3-5z" fill="#B0B99E"/>
<path transform="translate(835,1023)" d="m0 0 1 4 3 6h-5l-1-2v-6z" fill="#5C6E38"/>
<path transform="translate(967,875)" d="m0 0h2l-2 11h-2v-9z" fill="#808E66"/>
<path transform="translate(838,483)" d="m0 0 1 4-2 10h-1l-1-7-1-3z" fill="#8A9870"/>
<path transform="translate(654,404)" d="m0 0h6v4l-4 1-3-2z" fill="#536730"/>
<path transform="translate(886,1182)" d="m0 0 5 1v3h-2l1 3-1 6h-1l-2-9-1-3z" fill="#718055"/>
<path transform="translate(949,1177)" d="m0 0 2 1-1 5-7-1 1-4z" fill="#C8CEBB"/>
<path transform="translate(1135,1121)" d="m0 0 9 1 5 3-2 1-12-3z" fill="#9CA885"/>
<path transform="translate(892,1067)" d="m0 0 2 1 5 12v2l-3-1-4-10z" fill="#98A481"/>
<path transform="translate(444,1078)" d="m0 0 7 1 3 2-3 1-2 2-5-3z" fill="#77865B"/>
<path transform="translate(827,1024)" d="m0 0 3 4 3-2-2 5-4 2-1-7z" fill="#87966C"/>
<path transform="translate(679,1014)" d="m0 0 4 2v2l3 1-2 1h-3l-2 3v-3h-2z" fill="#A7B294"/>
<path transform="translate(590,882)" d="m0 0 9 6 1 2-6-1-4-3z" fill="#586C3A"/>
<path transform="translate(869,879)" d="m0 0h2l-2 5-4 3-2-3z" fill="#BCC4AD"/>
<path transform="translate(967,805)" d="m0 0m-9 1h9l1 2-4 2-5-1z" fill="#4B5F2F"/>
<path transform="translate(993,749)" d="m0 0h3v2h7v1l-16 1 1-2z" fill="#718153"/>
<path transform="translate(1052,621)" d="m0 0 2 2h-3l-1 3-5 4h-3l1-3z" fill="#6E7D52"/>
<path transform="translate(658,367)" d="m0 0h6l2 1-2 4h-5z" fill="#576938"/>
<path transform="translate(770,1165)" d="m0 0 1 2h-2l-1 3-3 2-2 4-3-1 2-4 5-3z" fill="#96A37E"/>
<path transform="translate(1009,1147)" d="m0 0h1l-1 9-1 2h-2l1-9z" fill="#AEB79B"/>
<path transform="translate(590,1065)" d="m0 0 2 3 3 8-1 2-3-5v-2h-2l-1-4z" fill="#5A6D34"/>
<path transform="translate(790,1013)" d="m0 0 3 1-1 9-4 4v-3l3-6z" fill="#4F642E"/>
<path transform="translate(780,774)" d="m0 0 1 3-2 5-4 2 1-5 1-3z" fill="#3E5123"/>
<path transform="translate(723,719)" d="m0 0 7 1 2 6-3 3-2-7z" fill="#647447"/>
<path transform="translate(994,1194)" d="m0 0 15 2v1h-14l-3 1z" fill="#AEB79B"/>
<path transform="translate(975,1178)" d="m0 0 1 3-4 10h-3l2-5z" fill="#E3E6DD"/>
<path transform="translate(434,991)" d="m0 0 1 2 17 1v1h-19l-2-2h3z" fill="#8B9A71"/>
<path transform="translate(770,894)" d="m0 0 1 2 3 1-2 4-4-1-1-3z" fill="#87966C"/>
<path transform="translate(1033,738)" d="m0 0h9l-1 4-6 2 2-3z" fill="#6A7A4D"/>
<path transform="translate(808,733)" d="m0 0 4 4 1 3-1 6-2-3-2-6z" fill="#B0BA9E"/>
<path transform="translate(807,610)" d="m0 0h2l-2 7-2-1-5 1 5-5z" fill="#8F9D76"/>
<path transform="translate(862,528)" d="m0 0h2l-1 4-8 2-1-2z" fill="#7D8B63"/>
<path transform="translate(802,348)" d="m0 0 3 1-1 5-6 1 2-6z" fill="#6A794E"/>
<path transform="translate(727,208)" d="m0 0h2l1 5h-2v3l-3 1 1-8z" fill="#536634"/>
<path transform="translate(986,1196)" d="m0 0 1 2-1 2 2 1-3 4h-3l1-5z" fill="#617241"/>
<path transform="translate(970,1190)" d="m0 0 1 4 2 5-5 1 1-9z" fill="#B1BAA0"/>
<path transform="translate(1e3 1149)" d="m0 0 2 1-6 11-2-1 2-5z" fill="#CFD4C4"/>
<path transform="translate(672,1141)" d="m0 0 3 3 1 8-2 1v-4h-2z" fill="#B1BAA0"/>
<path transform="translate(894,1060)" d="m0 0h2l2 10h-4l-1-5z" fill="#C8CEBC"/>
<path transform="translate(898,1010)" d="m0 0 3 1 4 7v3h-2l-5-9z" fill="#A3AE8E"/>
<path transform="translate(973,992)" d="m0 0h5l-5 5-5 2 3-5z" fill="#6A7A4E"/>
<path transform="translate(559,960)" d="m0 0 4 5 1 4-4-1-3-5 1-2z" fill="#9FAA89"/>
<path transform="translate(812,740)" d="m0 0 3 3 1 5h-3l-1 3z" fill="#718055"/>
<path transform="translate(687,719)" d="m0 0 3 1 2-1-2 7-3 1z" fill="#B8C0A8"/>
<path transform="translate(626,593)" d="m0 0 7 6 1 6-4-4-4-6z" fill="#8A9970"/>
<path transform="translate(837,477)" d="m0 0h2v6l-2 2h-3l2-7z" fill="#6A7A4E"/>
<path transform="translate(951,1172)" d="m0 0 2 2-3 3z" fill="#FDFDFD"/>
<path transform="translate(483,867)" d="m0 0h2l-1 2z" fill="#E0E4DA"/>
<path transform="translate(862,1014)" d="m0 0" fill="#FDFDFD"/>
<path transform="translate(807,730)" d="m0 0" fill="#FDFDFD"/>
<path transform="translate(683,1213)" d="m0 0" fill="#A8B294"/>
<path transform="translate(682,1212)" d="m0 0" fill="#FDFDFD"/>
<path transform="translate(682,1210)" d="m0 0" fill="#FDFDFD"/>
<path transform="translate(952,1187)" d="m0 0" fill="#FDFDFD"/>
<path transform="translate(1028,1119)" d="m0 0" fill="#FDFDFD"/>
<path transform="translate(783,1078)" d="m0 0" fill="#A8B294"/>
<path transform="translate(784,1077)" d="m0 0" fill="#FDFDFD"/>
<path transform="translate(838,1009)" d="m0 0" fill="#FDFDFD"/>
<path transform="translate(679 1e3)" d="m0 0" fill="#FDFDFD"/>
<path transform="translate(806,729)" d="m0 0" fill="#A8B294"/>
</svg>
